<svg width="357" height="37" viewBox="0 0 357 37" fill="none" xmlns="http://www.w3.org/2000/svg">
<path d="M30.2012 32.4111C28.5736 33.8109 26.7507 34.8851 24.7324 35.6338C22.7142 36.3825 20.6227 36.7568 18.458 36.7568C16.7979 36.7568 15.1947 36.5371 13.6484 36.0977C12.1185 35.6745 10.6781 35.0723 9.32715 34.291C7.99251 33.4935 6.77181 32.5413 5.66504 31.4346C4.55827 30.3278 3.60612 29.1071 2.80859 27.7725C2.02734 26.4215 1.41699 24.9811 0.977539 23.4512C0.554362 21.9049 0.342773 20.3018 0.342773 18.6416C0.342773 16.9814 0.554362 15.3783 0.977539 13.832C1.41699 12.2858 2.02734 10.8454 2.80859 9.51074C3.60612 8.15983 4.55827 6.93099 5.66504 5.82422C6.77181 4.71745 7.99251 3.77344 9.32715 2.99219C10.6781 2.19466 12.1185 1.58431 13.6484 1.16113C15.1947 0.72168 16.7979 0.501953 18.458 0.501953C20.6227 0.501953 22.7142 0.876302 24.7324 1.625C26.7507 2.35742 28.5736 3.43164 30.2012 4.84766L26.4902 10.9512C25.4648 9.8444 24.2523 8.99805 22.8525 8.41211C21.4528 7.8099 19.988 7.50879 18.458 7.50879C16.9118 7.50879 15.4632 7.80176 14.1123 8.3877C12.7614 8.97363 11.5814 9.77116 10.5723 10.7803C9.56315 11.7731 8.76562 12.9531 8.17969 14.3203C7.59375 15.6712 7.30078 17.1117 7.30078 18.6416C7.30078 20.1715 7.59375 21.612 8.17969 22.9629C8.76562 24.2975 9.56315 25.4694 10.5723 26.4785C11.5814 27.4876 12.7614 28.2852 14.1123 28.8711C15.4632 29.457 16.9118 29.75 18.458 29.75C19.988 29.75 21.4528 29.457 22.8525 28.8711C24.2523 28.2689 25.4648 27.4144 26.4902 26.3076L30.2012 32.4111ZM67.5547 18.6416C67.5547 20.3018 67.335 21.9049 66.8955 23.4512C66.4723 24.9811 65.8701 26.4215 65.0889 27.7725C64.3076 29.1071 63.3636 30.3278 62.2568 31.4346C61.1501 32.5413 59.9294 33.4935 58.5947 34.291C57.2601 35.0723 55.8197 35.6745 54.2734 36.0977C52.7272 36.5371 51.124 36.7568 49.4639 36.7568C47.8037 36.7568 46.2005 36.5371 44.6543 36.0977C43.1243 35.6745 41.6839 35.0723 40.333 34.291C38.9984 33.4935 37.7777 32.5413 36.6709 31.4346C35.5641 30.3278 34.612 29.1071 33.8145 27.7725C33.0332 26.4215 32.4229 24.9811 31.9834 23.4512C31.5602 21.9049 31.3486 20.3018 31.3486 18.6416C31.3486 16.9814 31.5602 15.3783 31.9834 13.832C32.4229 12.2858 33.0332 10.8454 33.8145 9.51074C34.612 8.17611 35.5641 6.9554 36.6709 5.84863C37.7777 4.74186 38.9984 3.79785 40.333 3.0166C41.6839 2.23535 43.1243 1.63314 44.6543 1.20996C46.2005 0.770508 47.8037 0.550781 49.4639 0.550781C51.124 0.550781 52.7272 0.770508 54.2734 1.20996C55.8197 1.63314 57.2601 2.23535 58.5947 3.0166C59.9294 3.79785 61.1501 4.74186 62.2568 5.84863C63.3636 6.9554 64.3076 8.17611 65.0889 9.51074C65.8701 10.8454 66.4723 12.2858 66.8955 13.832C67.335 15.3783 67.5547 16.9814 67.5547 18.6416ZM60.5967 18.6416C60.5967 17.1117 60.3037 15.6712 59.7178 14.3203C59.1318 12.9531 58.3343 11.7731 57.3252 10.7803C56.3324 9.77116 55.1523 8.97363 53.7852 8.3877C52.4342 7.80176 50.9938 7.50879 49.4639 7.50879C47.9176 7.50879 46.4691 7.80176 45.1182 8.3877C43.7673 8.97363 42.5872 9.77116 41.5781 10.7803C40.569 11.7731 39.7715 12.9531 39.1855 14.3203C38.5996 15.6712 38.3066 17.1117 38.3066 18.6416C38.3066 20.1715 38.5996 21.612 39.1855 22.9629C39.7715 24.2975 40.569 25.4694 41.5781 26.4785C42.5872 27.4876 43.7673 28.2852 45.1182 28.8711C46.4691 29.457 47.9176 29.75 49.4639 29.75C50.9938 29.75 52.4342 29.457 53.7852 28.8711C55.1523 28.2852 56.3324 27.4876 57.3252 26.4785C58.3343 25.4694 59.1318 24.2975 59.7178 22.9629C60.3037 21.612 60.5967 20.1715 60.5967 18.6416ZM100.221 18.4951C100.221 20.1064 100.009 21.6608 99.5859 23.1582C99.179 24.6393 98.5931 26.0309 97.8281 27.333C97.0632 28.6188 96.1517 29.7988 95.0938 30.873C94.0358 31.931 92.8558 32.8424 91.5537 33.6074C90.2516 34.3724 88.8519 34.9665 87.3545 35.3896C85.8734 35.7965 84.3271 36 82.7158 36H72.1689V0.990234H82.7158C84.3271 0.990234 85.8734 1.20182 87.3545 1.625C88.8519 2.0319 90.2516 2.61784 91.5537 3.38281C92.8558 4.14779 94.0358 5.06738 95.0938 6.1416C96.1517 7.19954 97.0632 8.37956 97.8281 9.68164C98.5931 10.9674 99.179 12.359 99.5859 13.8564C100.009 15.3376 100.221 16.8838 100.221 18.4951ZM93.2139 18.4951C93.2139 17.0465 92.9372 15.6875 92.3838 14.418C91.8467 13.1484 91.098 12.0417 90.1377 11.0977C89.1937 10.1374 88.0788 9.38053 86.793 8.82715C85.5234 8.27376 84.1644 7.99707 82.7158 7.99707H79.2246V28.9932H82.7158C84.1644 28.9932 85.5234 28.7246 86.793 28.1875C88.0788 27.6341 89.1937 26.8854 90.1377 25.9414C91.098 24.9811 91.8467 23.8662 92.3838 22.5967C92.9372 21.3109 93.2139 19.9437 93.2139 18.4951ZM128.883 36H104.884V0.990234H128.883V7.99707H111.891V15.0039H123.39V22.0107H111.891V28.9932H128.883V36ZM160.865 32.4111C159.238 33.8109 157.415 34.8851 155.396 35.6338C153.378 36.3825 151.287 36.7568 149.122 36.7568C147.462 36.7568 145.859 36.5371 144.312 36.0977C142.783 35.6745 141.342 35.0723 139.991 34.291C138.657 33.4935 137.436 32.5413 136.329 31.4346C135.222 30.3278 134.27 29.1071 133.473 27.7725C132.691 26.4215 132.081 24.9811 131.642 23.4512C131.218 21.9049 131.007 20.3018 131.007 18.6416C131.007 16.9814 131.218 15.3783 131.642 13.832C132.081 12.2858 132.691 10.8454 133.473 9.51074C134.27 8.15983 135.222 6.93099 136.329 5.82422C137.436 4.71745 138.657 3.77344 139.991 2.99219C141.342 2.19466 142.783 1.58431 144.312 1.16113C145.859 0.72168 147.462 0.501953 149.122 0.501953C151.287 0.501953 153.378 0.876302 155.396 1.625C157.415 2.35742 159.238 3.43164 160.865 4.84766L157.154 10.9512C156.129 9.8444 154.916 8.99805 153.517 8.41211C152.117 7.8099 150.652 7.50879 149.122 7.50879C147.576 7.50879 146.127 7.80176 144.776 8.3877C143.425 8.97363 142.245 9.77116 141.236 10.7803C140.227 11.7731 139.43 12.9531 138.844 14.3203C138.258 15.6712 137.965 17.1117 137.965 18.6416C137.965 20.1715 138.258 21.612 138.844 22.9629C139.43 24.2975 140.227 25.4694 141.236 26.4785C142.245 27.4876 143.425 28.2852 144.776 28.8711C146.127 29.457 147.576 29.75 149.122 29.75C150.652 29.75 152.117 29.457 153.517 28.8711C154.916 28.2689 156.129 27.4144 157.154 26.3076L160.865 32.4111ZM171.949 7.99707V22.0107H178.956C179.916 22.0107 180.82 21.8317 181.666 21.4736C182.512 21.0993 183.253 20.5947 183.888 19.96C184.522 19.3252 185.019 18.5846 185.377 17.7383C185.751 16.8757 185.938 15.9642 185.938 15.0039C185.938 14.0436 185.751 13.1403 185.377 12.2939C185.019 11.4313 184.522 10.6826 183.888 10.0479C183.253 9.41309 182.512 8.91667 181.666 8.55859C180.82 8.18424 179.916 7.99707 178.956 7.99707H171.949ZM171.949 36H164.942V0.990234H178.956C180.242 0.990234 181.479 1.16113 182.667 1.50293C183.855 1.82845 184.962 2.30046 185.987 2.91895C187.029 3.52116 187.973 4.25358 188.819 5.11621C189.682 5.96257 190.414 6.90658 191.017 7.94824C191.635 8.98991 192.107 10.1048 192.433 11.293C192.774 12.4811 192.945 13.7181 192.945 15.0039C192.945 16.2083 192.791 17.3802 192.481 18.5195C192.188 19.6589 191.757 20.7412 191.188 21.7666C190.634 22.792 189.951 23.736 189.137 24.5986C188.323 25.4613 187.411 26.21 186.402 26.8447L190.284 36H182.838L179.786 28.9443L171.949 28.9932V36ZM204.566 36H197.56V0.990234H204.566V36ZM225.782 36H218.8V7.99707H208.277V0.990234H236.28V7.99707H225.782V36ZM254.688 36H247.706V7.99707H237.184V0.990234H265.187V7.99707H254.688V36ZM292.896 36H268.897V0.990234H292.896V7.99707H275.904V15.0039H287.403V22.0107H275.904V28.9932H292.896V36ZM304.811 7.99707V22.0107H311.817C312.778 22.0107 313.681 21.8317 314.527 21.4736C315.374 21.0993 316.114 20.5947 316.749 19.96C317.384 19.3252 317.88 18.5846 318.238 17.7383C318.613 16.8757 318.8 15.9642 318.8 15.0039C318.8 14.0436 318.613 13.1403 318.238 12.2939C317.88 11.4313 317.384 10.6826 316.749 10.0479C316.114 9.41309 315.374 8.91667 314.527 8.55859C313.681 8.18424 312.778 7.99707 311.817 7.99707H304.811ZM304.811 36H297.804V0.990234H311.817C313.103 0.990234 314.34 1.16113 315.528 1.50293C316.716 1.82845 317.823 2.30046 318.849 2.91895C319.89 3.52116 320.834 4.25358 321.681 5.11621C322.543 5.96257 323.276 6.90658 323.878 7.94824C324.496 8.98991 324.968 10.1048 325.294 11.293C325.636 12.4811 325.807 13.7181 325.807 15.0039C325.807 16.2083 325.652 17.3802 325.343 18.5195C325.05 19.6589 324.618 20.7412 324.049 21.7666C323.495 22.792 322.812 23.736 321.998 24.5986C321.184 25.4613 320.273 26.21 319.264 26.8447L323.146 36H315.699L312.647 28.9443L304.811 28.9932V36ZM328.37 11.4883C328.37 10.0397 328.647 8.68066 329.2 7.41113C329.754 6.1416 330.502 5.03483 331.446 4.09082C332.407 3.13053 333.521 2.3737 334.791 1.82031C336.061 1.26693 337.42 0.990234 338.868 0.990234H354.933V7.99707H338.868C338.38 7.99707 337.924 8.08659 337.501 8.26562C337.078 8.44466 336.703 8.69694 336.378 9.02246C336.069 9.33171 335.825 9.69792 335.646 10.1211C335.466 10.5443 335.377 11 335.377 11.4883C335.377 11.9766 335.466 12.4404 335.646 12.8799C335.825 13.3031 336.069 13.6774 336.378 14.0029C336.703 14.3122 337.078 14.5563 337.501 14.7354C337.924 14.9144 338.38 15.0039 338.868 15.0039H345.875C347.324 15.0039 348.683 15.2806 349.952 15.834C351.238 16.3711 352.353 17.1198 353.297 18.0801C354.257 19.0241 355.006 20.139 355.543 21.4248C356.096 22.6943 356.373 24.0534 356.373 25.502C356.373 26.9505 356.096 28.3096 355.543 29.5791C355.006 30.8486 354.257 31.9635 353.297 32.9238C352.353 33.8678 351.238 34.6165 349.952 35.1699C348.683 35.7233 347.324 36 345.875 36H330.323V28.9932H345.875C346.363 28.9932 346.819 28.9036 347.242 28.7246C347.665 28.5456 348.032 28.3014 348.341 27.9922C348.666 27.6667 348.919 27.2923 349.098 26.8691C349.277 26.446 349.366 25.9902 349.366 25.502C349.366 25.0137 349.277 24.5579 349.098 24.1348C348.919 23.7116 348.666 23.3454 348.341 23.0361C348.032 22.7106 347.665 22.4583 347.242 22.2793C346.819 22.1003 346.363 22.0107 345.875 22.0107H338.868C337.42 22.0107 336.061 21.734 334.791 21.1807C333.521 20.6273 332.407 19.8786 331.446 18.9346C330.502 17.9743 329.754 16.8594 329.2 15.5898C328.647 14.304 328.37 12.9368 328.37 11.4883Z" fill="black" fill-opacity="0.2"/>
</svg>
