<svg width="263" height="70" viewBox="0 0 263 70" fill="none" xmlns="http://www.w3.org/2000/svg">
<path d="M22.6521 33.3945C21.4704 34.4107 20.147 35.1906 18.6817 35.7341C17.2165 36.2777 15.6981 36.5495 14.1265 36.5495C12.9212 36.5495 11.7573 36.3899 10.6348 36.0709C9.52402 35.7637 8.47827 35.3265 7.49751 34.7593C6.52856 34.1803 5.64233 33.489 4.83882 32.6855C4.0353 31.882 3.34404 30.9958 2.76504 30.0268C2.19785 29.046 1.75474 28.0003 1.43569 26.8896C1.12847 25.767 0.974853 24.6031 0.974853 23.3978C0.974853 22.1925 1.12847 21.0286 1.43569 19.9061C1.75474 18.7835 2.19785 17.7377 2.76504 16.7688C3.34404 15.788 4.0353 14.8959 4.83882 14.0924C5.64233 13.2889 6.52856 12.6035 7.49751 12.0363C8.47827 11.4573 9.52402 11.0142 10.6348 10.707C11.7573 10.3879 12.9212 10.2284 14.1265 10.2284C15.6981 10.2284 17.2165 10.5002 18.6817 11.0438C20.147 11.5755 21.4704 12.3554 22.6521 13.3834L19.9579 17.8146C19.2135 17.011 18.3332 16.3966 17.3169 15.9712C16.3007 15.534 15.2373 15.3154 14.1265 15.3154C13.004 15.3154 11.9523 15.5281 10.9715 15.9535C9.99077 16.3789 9.13408 16.9579 8.40146 17.6905C7.66885 18.4113 7.08984 19.268 6.66445 20.2605C6.23906 21.2413 6.02637 22.2871 6.02637 23.3978C6.02637 24.5085 6.23906 25.5543 6.66445 26.5351C7.08984 27.504 7.66885 28.3548 8.40146 29.0874C9.13408 29.82 9.99077 30.399 10.9715 30.8244C11.9523 31.2498 13.004 31.4625 14.1265 31.4625C15.2373 31.4625 16.3007 31.2498 17.3169 30.8244C18.3332 30.3872 19.2135 29.7668 19.9579 28.9633L22.6521 33.3945ZM49.7707 23.3978C49.7707 24.6031 49.6112 25.767 49.2921 26.8896C48.9849 28.0003 48.5477 29.046 47.9805 30.0268C47.4133 30.9958 46.728 31.882 45.9245 32.6855C45.1209 33.489 44.2347 34.1803 43.2658 34.7593C42.2968 35.3265 41.2511 35.7637 40.1285 36.0709C39.006 36.3899 37.842 36.5495 36.6368 36.5495C35.4315 36.5495 34.2676 36.3899 33.145 36.0709C32.0343 35.7637 30.9885 35.3265 30.0078 34.7593C29.0388 34.1803 28.1526 33.489 27.3491 32.6855C26.5456 31.882 25.8543 30.9958 25.2753 30.0268C24.7081 29.046 24.265 28.0003 23.9459 26.8896C23.6387 25.767 23.4851 24.6031 23.4851 23.3978C23.4851 22.1925 23.6387 21.0286 23.9459 19.9061C24.265 18.7835 24.7081 17.7377 25.2753 16.7688C25.8543 15.7999 26.5456 14.9136 27.3491 14.1101C28.1526 13.3066 29.0388 12.6212 30.0078 12.0541C30.9885 11.4869 32.0343 11.0497 33.145 10.7424C34.2676 10.4234 35.4315 10.2639 36.6368 10.2639C37.842 10.2639 39.006 10.4234 40.1285 10.7424C41.2511 11.0497 42.2968 11.4869 43.2658 12.0541C44.2347 12.6212 45.1209 13.3066 45.9245 14.1101C46.728 14.9136 47.4133 15.7999 47.9805 16.7688C48.5477 17.7377 48.9849 18.7835 49.2921 19.9061C49.6112 21.0286 49.7707 22.1925 49.7707 23.3978ZM44.7192 23.3978C44.7192 22.2871 44.5065 21.2413 44.0811 20.2605C43.6557 19.268 43.0767 18.4113 42.3441 17.6905C41.6233 16.9579 40.7666 16.3789 39.774 15.9535C38.7933 15.5281 37.7475 15.3154 36.6368 15.3154C35.5142 15.3154 34.4625 15.5281 33.4818 15.9535C32.501 16.3789 31.6443 16.9579 30.9117 17.6905C30.1791 18.4113 29.6001 19.268 29.1747 20.2605C28.7493 21.2413 28.5366 22.2871 28.5366 23.3978C28.5366 24.5085 28.7493 25.5543 29.1747 26.5351C29.6001 27.504 30.1791 28.3548 30.9117 29.0874C31.6443 29.82 32.501 30.399 33.4818 30.8244C34.4625 31.2498 35.5142 31.4625 36.6368 31.4625C37.7475 31.4625 38.7933 31.2498 39.774 30.8244C40.7666 30.399 41.6233 29.82 42.3441 29.0874C43.0767 28.3548 43.6557 27.504 44.0811 26.5351C44.5065 25.5543 44.7192 24.5085 44.7192 23.3978ZM73.4862 23.2915C73.4862 24.4613 73.3326 25.5897 73.0254 26.6769C72.73 27.7521 72.3046 28.7625 71.7492 29.7078C71.1938 30.6413 70.5321 31.4979 69.7641 32.2778C68.996 33.0459 68.1393 33.7076 67.194 34.263C66.2487 34.8184 65.2325 35.2497 64.1454 35.5569C63.0701 35.8523 61.9475 36 60.7777 36H53.1207V10.5829H60.7777C61.9475 10.5829 63.0701 10.7365 64.1454 11.0438C65.2325 11.3392 66.2487 11.7646 67.194 12.3199C68.1393 12.8753 68.996 13.5429 69.7641 14.3228C70.5321 15.0909 71.1938 15.9476 71.7492 16.8929C72.3046 17.8264 72.73 18.8367 73.0254 19.9238C73.3326 20.9991 73.4862 22.1216 73.4862 23.2915ZM68.3993 23.2915C68.3993 22.2398 68.1984 21.2531 67.7966 20.3314C67.4067 19.4098 66.8631 18.6063 66.166 17.9209C65.4806 17.2237 64.6712 16.6743 63.7377 16.2725C62.816 15.8708 61.8293 15.6699 60.7777 15.6699H58.2431V30.913H60.7777C61.8293 30.913 62.816 30.7181 63.7377 30.3281C64.6712 29.9264 65.4806 29.3828 66.166 28.6975C66.8631 28.0003 67.4067 27.1909 67.7966 26.2692C68.1984 25.3357 68.3993 24.3431 68.3993 23.2915ZM94.2949 36H76.8716V10.5829H94.2949V15.6699H81.9586V20.7568H90.3069V25.8438H81.9586V30.913H94.2949V36ZM117.514 33.3945C116.333 34.4107 115.009 35.1906 113.544 35.7341C112.079 36.2777 110.56 36.5495 108.989 36.5495C107.783 36.5495 106.619 36.3899 105.497 36.0709C104.386 35.7637 103.34 35.3265 102.36 34.7593C101.391 34.1803 100.504 33.489 99.7009 32.6855C98.8974 31.882 98.2061 30.9958 97.6271 30.0268C97.06 29.046 96.6168 28.0003 96.2978 26.8896C95.9906 25.767 95.837 24.6031 95.837 23.3978C95.837 22.1925 95.9906 21.0286 96.2978 19.9061C96.6168 18.7835 97.06 17.7377 97.6271 16.7688C98.2061 15.788 98.8974 14.8959 99.7009 14.0924C100.504 13.2889 101.391 12.6035 102.36 12.0363C103.34 11.4573 104.386 11.0142 105.497 10.707C106.619 10.3879 107.783 10.2284 108.989 10.2284C110.56 10.2284 112.079 10.5002 113.544 11.0438C115.009 11.5755 116.333 12.3554 117.514 13.3834L114.82 17.8146C114.076 17.011 113.195 16.3966 112.179 15.9712C111.163 15.534 110.099 15.3154 108.989 15.3154C107.866 15.3154 106.814 15.5281 105.834 15.9535C104.853 16.3789 103.996 16.9579 103.264 17.6905C102.531 18.4113 101.952 19.268 101.527 20.2605C101.101 21.2413 100.888 22.2871 100.888 23.3978C100.888 24.5085 101.101 25.5543 101.527 26.5351C101.952 27.504 102.531 28.3548 103.264 29.0874C103.996 29.82 104.853 30.399 105.834 30.8244C106.814 31.2498 107.866 31.4625 108.989 31.4625C110.099 31.4625 111.163 31.2498 112.179 30.8244C113.195 30.3872 114.076 29.7668 114.82 28.9633L117.514 33.3945ZM125.561 15.6699V25.8438H130.648C131.345 25.8438 132.001 25.7138 132.616 25.4539C133.23 25.1821 133.768 24.8158 134.228 24.3549C134.689 23.8941 135.05 23.3564 135.31 22.742C135.581 22.1157 135.717 21.454 135.717 20.7568C135.717 20.0597 135.581 19.4039 135.31 18.7894C135.05 18.1631 134.689 17.6196 134.228 17.1587C133.768 16.6979 133.23 16.3375 132.616 16.0775C132.001 15.8058 131.345 15.6699 130.648 15.6699H125.561ZM125.561 36H120.474V10.5829H130.648C131.582 10.5829 132.48 10.707 133.342 10.9551C134.205 11.1915 135.008 11.5341 135.753 11.9832C136.509 12.4204 137.194 12.9521 137.809 13.5784C138.435 14.1928 138.967 14.8782 139.404 15.6344C139.853 16.3907 140.196 17.2001 140.432 18.0627C140.68 18.9253 140.804 19.8233 140.804 20.7568C140.804 21.6313 140.692 22.482 140.468 23.3092C140.255 24.1363 139.942 24.9221 139.528 25.6666C139.126 26.411 138.63 27.0963 138.039 27.7226C137.448 28.3489 136.787 28.8924 136.054 29.3533L138.872 36H133.466L131.251 30.8776L125.561 30.913V36ZM149.241 36H144.154V10.5829H149.241V36ZM164.644 36H159.575V15.6699H151.935V10.5829H172.265V15.6699H164.644V36ZM185.63 36H180.561V15.6699H172.921V10.5829H193.251V15.6699H185.63V36ZM213.369 36H195.946V10.5829H213.369V15.6699H201.033V20.7568H209.381V25.8438H201.033V30.913H213.369V36ZM222.018 15.6699V25.8438H227.105C227.803 25.8438 228.458 25.7138 229.073 25.4539C229.687 25.1821 230.225 24.8158 230.686 24.3549C231.147 23.8941 231.507 23.3564 231.767 22.742C232.039 22.1157 232.175 21.454 232.175 20.7568C232.175 20.0597 232.039 19.4039 231.767 18.7894C231.507 18.1631 231.147 17.6196 230.686 17.1587C230.225 16.6979 229.687 16.3375 229.073 16.0775C228.458 15.8058 227.803 15.6699 227.105 15.6699H222.018ZM222.018 36H216.932V10.5829H227.105C228.039 10.5829 228.937 10.707 229.8 10.9551C230.662 11.1915 231.466 11.5341 232.21 11.9832C232.966 12.4204 233.652 12.9521 234.266 13.5784C234.892 14.1928 235.424 14.8782 235.861 15.6344C236.31 16.3907 236.653 17.2001 236.889 18.0627C237.138 18.9253 237.262 19.8233 237.262 20.7568C237.262 21.6313 237.149 22.482 236.925 23.3092C236.712 24.1363 236.399 24.9221 235.985 25.6666C235.584 26.411 235.087 27.0963 234.497 27.7226C233.906 28.3489 233.244 28.8924 232.511 29.3533L235.33 36H229.924L227.708 30.8776L222.018 30.913V36ZM239.123 18.2045C239.123 17.1528 239.324 16.1662 239.725 15.2445C240.127 14.3228 240.671 13.5193 241.356 12.8339C242.053 12.1368 242.863 11.5873 243.784 11.1855C244.706 10.7838 245.693 10.5829 246.744 10.5829H258.407V15.6699H246.744C246.39 15.6699 246.059 15.7349 245.752 15.8648C245.444 15.9948 245.173 16.178 244.936 16.4143C244.712 16.6388 244.535 16.9047 244.405 17.2119C244.275 17.5191 244.21 17.85 244.21 18.2045C244.21 18.559 244.275 18.8958 244.405 19.2148C244.535 19.522 244.712 19.7938 244.936 20.0301C245.173 20.2546 245.444 20.4319 245.752 20.5619C246.059 20.6918 246.39 20.7568 246.744 20.7568H251.831C252.883 20.7568 253.87 20.9577 254.791 21.3595C255.725 21.7494 256.534 22.293 257.22 22.9901C257.917 23.6755 258.46 24.4849 258.85 25.4184C259.252 26.3401 259.453 27.3268 259.453 28.3784C259.453 29.4301 259.252 30.4167 258.85 31.3384C258.46 32.2601 257.917 33.0695 257.22 33.7667C256.534 34.4521 255.725 34.9956 254.791 35.3974C253.87 35.7991 252.883 36 251.831 36H240.541V30.913H251.831C252.186 30.913 252.517 30.848 252.824 30.7181C253.131 30.5881 253.397 30.4108 253.621 30.1863C253.858 29.95 254.041 29.6782 254.171 29.371C254.301 29.0638 254.366 28.7329 254.366 28.3784C254.366 28.0239 254.301 27.6931 254.171 27.3858C254.041 27.0786 253.858 26.8127 253.621 26.5882C253.397 26.3519 253.131 26.1688 252.824 26.0388C252.517 25.9088 252.186 25.8438 251.831 25.8438H246.744C245.693 25.8438 244.706 25.6429 243.784 25.2412C242.863 24.8394 242.053 24.2958 241.356 23.6105C240.671 22.9133 240.127 22.1039 239.725 21.1822C239.324 20.2487 239.123 19.2562 239.123 18.2045Z" fill="black"/>
<path d="M1.71875 64V48.6387H2.84668L9.77539 62.6787L16.2744 48.6387H17.2949V64H16.2744V50.7119L10.1729 64H9.24902L2.73926 50.6045V64H1.71875ZM20.0879 60.8096C20.0879 58.568 21.5775 57.4473 24.5566 57.4473C25.6094 57.4473 26.7337 57.5189 27.9297 57.6621V56.2764C27.9297 54.5505 26.8447 53.6875 24.6748 53.6875C23.5146 53.6875 22.3258 53.8665 21.1084 54.2246V53.2578C22.3258 52.8997 23.5146 52.7207 24.6748 52.7207C27.5967 52.7207 29.0576 53.888 29.0576 56.2227V64H28.3701L28.1123 62.8828C26.7015 63.6276 25.3337 64 24.0088 64C21.3949 64 20.0879 62.9365 20.0879 60.8096ZM24.5566 58.4141C22.3294 58.4141 21.2158 59.2018 21.2158 60.7773C21.2158 62.2812 22.1468 63.0332 24.0088 63.0332C25.3838 63.0332 26.6908 62.668 27.9297 61.9375V58.6289C26.7337 58.4857 25.6094 58.4141 24.5566 58.4141ZM40.6699 63.6777C39.7389 63.8926 38.7363 64 37.6621 64C33.8665 64 31.9688 62.0485 31.9688 58.1455C31.9688 54.529 33.8665 52.7207 37.6621 52.7207C38.7363 52.7207 39.7389 52.8281 40.6699 53.043V54.0098C39.6673 53.7949 38.7005 53.6875 37.7695 53.6875C34.7259 53.6875 33.2041 55.1735 33.2041 58.1455C33.2041 61.404 34.7259 63.0332 37.7695 63.0332C38.7005 63.0332 39.6673 62.9258 40.6699 62.7109V63.6777ZM43.3125 64V48.6387H44.4404V53.9453C45.7581 53.1289 47.1081 52.7207 48.4902 52.7207C51.2331 52.7207 52.6045 54.1208 52.6045 56.9209V64H51.4766V56.459C51.4766 54.64 50.4632 53.7305 48.4365 53.7305C47.083 53.7305 45.751 54.2067 44.4404 55.1592V64H43.3125ZM57.5029 48.6387V49.9277H56.1602V48.6387H57.5029ZM57.3955 52.7207V64H56.2676V52.7207H57.3955ZM61.0586 64V52.7207H61.8643L62.0039 54.1602C63.4434 53.2005 64.8542 52.7207 66.2363 52.7207C68.9792 52.7207 70.3506 53.9059 70.3506 56.2764V64H69.2227V56.2441C69.2227 54.5684 68.2093 53.7305 66.1826 53.7305C64.8291 53.7305 63.4971 54.2067 62.1865 55.1592V64H61.0586ZM78.3428 52.7207C81.4294 52.7207 82.9727 54.4287 82.9727 57.8447C82.9727 58.0882 82.9655 58.3424 82.9512 58.6074H74.3896C74.3896 61.5579 75.9508 63.0332 79.0732 63.0332C80.3551 63.0332 81.4938 62.8542 82.4893 62.4961V63.4629C81.4938 63.821 80.3551 64 79.0732 64C75.1989 64 73.2617 62.0771 73.2617 58.2314C73.2617 54.5576 74.9554 52.7207 78.3428 52.7207ZM74.3896 57.5977H81.8877C81.8447 54.9766 80.6631 53.666 78.3428 53.666C75.8363 53.666 74.5186 54.9766 74.3896 57.5977ZM92.3721 48.6387V63.0332H101.267V64H91.2441V48.6387H92.3721ZM108.077 52.7207C111.164 52.7207 112.707 54.4287 112.707 57.8447C112.707 58.0882 112.7 58.3424 112.686 58.6074H104.124C104.124 61.5579 105.685 63.0332 108.808 63.0332C110.09 63.0332 111.228 62.8542 112.224 62.4961V63.4629C111.228 63.821 110.09 64 108.808 64C104.933 64 102.996 62.0771 102.996 58.2314C102.996 54.5576 104.69 52.7207 108.077 52.7207ZM104.124 57.5977H111.622C111.579 54.9766 110.397 53.666 108.077 53.666C105.571 53.666 104.253 54.9766 104.124 57.5977ZM114.963 60.8096C114.963 58.568 116.452 57.4473 119.432 57.4473C120.484 57.4473 121.609 57.5189 122.805 57.6621V56.2764C122.805 54.5505 121.72 53.6875 119.55 53.6875C118.39 53.6875 117.201 53.8665 115.983 54.2246V53.2578C117.201 52.8997 118.39 52.7207 119.55 52.7207C122.472 52.7207 123.933 53.888 123.933 56.2227V64H123.245L122.987 62.8828C121.576 63.6276 120.209 64 118.884 64C116.27 64 114.963 62.9365 114.963 60.8096ZM119.432 58.4141C117.204 58.4141 116.091 59.2018 116.091 60.7773C116.091 62.2812 117.022 63.0332 118.884 63.0332C120.259 63.0332 121.566 62.668 122.805 61.9375V58.6289C121.609 58.4857 120.484 58.4141 119.432 58.4141ZM127.381 64V52.7207H128.187L128.326 54.5898C129.458 53.3438 130.718 52.7207 132.107 52.7207V53.623C130.761 53.623 129.562 54.2783 128.509 55.5889V64H127.381ZM134.213 64V52.7207H135.019L135.158 54.1602C136.598 53.2005 138.008 52.7207 139.391 52.7207C142.133 52.7207 143.505 53.9059 143.505 56.2764V64H142.377V56.2441C142.377 54.5684 141.364 53.7305 139.337 53.7305C137.983 53.7305 136.651 54.2067 135.341 55.1592V64H134.213ZM148.403 48.6387V49.9277H147.061V48.6387H148.403ZM148.296 52.7207V64H147.168V52.7207H148.296ZM151.959 64V52.7207H152.765L152.904 54.1602C154.344 53.2005 155.755 52.7207 157.137 52.7207C159.88 52.7207 161.251 53.9059 161.251 56.2764V64H160.123V56.2441C160.123 54.5684 159.11 53.7305 157.083 53.7305C155.729 53.7305 154.397 54.2067 153.087 55.1592V64H151.959ZM172.885 53.9883C171.846 53.8164 170.826 53.7305 169.823 53.7305C166.78 53.7305 165.258 55.2451 165.258 58.2744C165.258 61.3753 166.679 62.9258 169.522 62.9258C170.554 62.9258 171.674 62.7324 172.885 62.3457V53.9883ZM174.013 64C174.013 66.7214 172.355 68.082 169.039 68.082C167.65 68.082 166.418 67.903 165.344 67.5449V66.5781C166.439 66.9362 167.678 67.1152 169.061 67.1152C171.61 67.1152 172.885 66.0768 172.885 64V63.4629C171.61 63.821 170.486 64 169.512 64C165.945 64 164.162 62.0986 164.162 58.2959C164.162 54.5791 166.078 52.7207 169.909 52.7207C171.363 52.7207 172.731 52.8747 174.013 53.1826V64ZM184.497 48.6387V64H183.369V48.6387H184.497ZM188.482 64V52.7207H189.288L189.406 54.1387C190.559 53.1934 191.809 52.7207 193.155 52.7207C194.931 52.7207 196.081 53.2363 196.604 54.2676C197.9 53.2363 199.214 52.7207 200.546 52.7207C203.067 52.7207 204.327 53.9704 204.327 56.4697V64H203.199V56.4697C203.199 54.6436 202.311 53.7305 200.535 53.7305C199.117 53.7305 197.946 54.2174 197.022 55.1914V64H195.895V56.2871C195.895 54.5827 194.978 53.7305 193.145 53.7305C191.812 53.7305 190.634 54.2174 189.61 55.1914V64H188.482ZM207.131 60.8096C207.131 58.568 208.62 57.4473 211.6 57.4473C212.652 57.4473 213.777 57.5189 214.973 57.6621V56.2764C214.973 54.5505 213.888 53.6875 211.718 53.6875C210.558 53.6875 209.369 53.8665 208.151 54.2246V53.2578C209.369 52.8997 210.558 52.7207 211.718 52.7207C214.64 52.7207 216.101 53.888 216.101 56.2227V64H215.413L215.155 62.8828C213.744 63.6276 212.377 64 211.052 64C208.438 64 207.131 62.9365 207.131 60.8096ZM211.6 58.4141C209.372 58.4141 208.259 59.2018 208.259 60.7773C208.259 62.2812 209.19 63.0332 211.052 63.0332C212.427 63.0332 213.734 62.668 214.973 61.9375V58.6289C213.777 58.4857 212.652 58.4141 211.6 58.4141ZM227.734 53.9883C226.696 53.8164 225.675 53.7305 224.673 53.7305C221.629 53.7305 220.107 55.2451 220.107 58.2744C220.107 61.3753 221.529 62.9258 224.372 62.9258C225.403 62.9258 226.524 62.7324 227.734 62.3457V53.9883ZM228.862 64C228.862 66.7214 227.204 68.082 223.889 68.082C222.499 68.082 221.268 67.903 220.193 67.5449V66.5781C221.289 66.9362 222.528 67.1152 223.91 67.1152C226.46 67.1152 227.734 66.0768 227.734 64V63.4629C226.46 63.821 225.335 64 224.361 64C220.795 64 219.012 62.0986 219.012 58.2959C219.012 54.5791 220.927 52.7207 224.759 52.7207C226.213 52.7207 227.58 52.8747 228.862 53.1826V64ZM233.761 48.6387V49.9277H232.418V48.6387H233.761ZM233.653 52.7207V64H232.525V52.7207H233.653ZM237.316 64V52.7207H238.122L238.262 54.1602C239.701 53.2005 241.112 52.7207 242.494 52.7207C245.237 52.7207 246.608 53.9059 246.608 56.2764V64H245.48V56.2441C245.48 54.5684 244.467 53.7305 242.44 53.7305C241.087 53.7305 239.755 54.2067 238.444 55.1592V64H237.316ZM258.242 53.9883C257.204 53.8164 256.183 53.7305 255.181 53.7305C252.137 53.7305 250.615 55.2451 250.615 58.2744C250.615 61.3753 252.037 62.9258 254.88 62.9258C255.911 62.9258 257.032 62.7324 258.242 62.3457V53.9883ZM259.37 64C259.37 66.7214 257.712 68.082 254.396 68.082C253.007 68.082 251.775 67.903 250.701 67.5449V66.5781C251.797 66.9362 253.036 67.1152 254.418 67.1152C256.967 67.1152 258.242 66.0768 258.242 64V63.4629C256.967 63.821 255.843 64 254.869 64C251.303 64 249.52 62.0986 249.52 58.2959C249.52 54.5791 251.435 52.7207 255.267 52.7207C256.72 52.7207 258.088 52.8747 259.37 53.1826V64Z" fill="black"/>
</svg>
