<svg xmlns="http://www.w3.org/2000/svg" xmlns:xlink="http://www.w3.org/1999/xlink" version="1.1" width="46" height="45" viewBox="0 0 46 45" xml:space="preserve">
<desc>Created with Fabric.js 3.5.0</desc>
<defs>
</defs>
<rect x="0" y="0" width="100%" height="100%" fill="none"/>
<g transform="matrix(0.1415 0 0 0.1404 23.0063 21.4959)" id="259904">
<path style="stroke: none; stroke-width: 1; stroke-dasharray: none; stroke-linecap: butt; stroke-dashoffset: 0; stroke-linejoin: miter; stroke-miterlimit: 4; is-custom-font: none; font-file-url: none; fill: rgb(255,255,255); fill-rule: evenodd; opacity: 1;" vector-effect="non-scaling-stroke" transform=" translate(-203.7519, -206.9126)" d="M 188.92 60.862 C 164.431 71.312 142.813 104.867 126.982 157 C 121.435 175.266 122.198 173.997 112.837 180.53 C 62.482 215.677 44.653 239.871 44.697 273 C 44.794 345.407 129.369 383.17 182.418 334.493 C 186.258 330.969 186.446 330.914 191.918 331.699 C 198.99 332.714 209.99 332.726 216.669 331.726 C 221.667 330.978 221.963 331.071 225.669 334.539 C 278.761 384.236 365.754 343.65 362.73 270.594 C 361.353 237.315 344.489 214.846 295 180.351 C 287.856 175.371 286.307 173.794 285.289 170.463 C 258.373 82.386 225.662 45.183 188.92 60.862 M 193.132 96.75 C 178.086 111.906 159.89 149.247 171.208 141.74 C 193.738 126.799 201.212 123.244 207.334 124.557 C 210.4 125.215 237.422 141.256 238.556 143.091 C 239.34 144.359 242 144.231 242 142.926 C 242 140.454 229.787 116.812 224.179 108.429 C 211.128 88.917 203.686 86.118 193.132 96.75 M 170.998 179.824 C 85.782 236.681 71.262 253.134 78.554 284.579 C 91.104 338.689 163.159 336.042 175.948 281 C 181.296 257.984 189.49 169.754 186.25 170.074 C 185.838 170.115 178.974 174.502 170.998 179.824 M 221.49 183.25 C 225.872 269.678 232.521 299.338 250.57 312.965 C 301.826 351.664 359.436 281.836 313.316 236.913 C 298.172 222.162 226.53 170 221.414 170 C 221.087 170 221.121 175.963 221.49 183.25" stroke-linecap="round"/>
</g>
</svg>