<svg width="136" height="136" viewBox="0 0 136 136" fill="none" xmlns="http://www.w3.org/2000/svg">
<path d="M102 124.667C105.006 124.667 107.888 123.473 110.014 121.347C112.139 119.222 113.333 116.339 113.333 113.334V45.3335L79.3332 11.3335H33.9998C30.9941 11.3335 28.1114 12.5275 25.986 14.653C23.8605 16.7784 22.6665 19.661 22.6665 22.6668V113.334C22.6665 116.339 23.8605 119.222 25.986 121.347C28.1114 123.473 30.9941 124.667 33.9998 124.667H102ZM73.6665 22.6668L102 51.0002H73.6665V22.6668ZM39.6665 45.3335H56.6665V56.6668H39.6665V45.3335ZM39.6665 68.0002H96.3332V79.3335H39.6665V68.0002ZM39.6665 90.6668H96.3332V102H39.6665V90.6668Z" fill="#22C55E"/>
</svg>
