<svg width="145" height="116" viewBox="0 0 145 116" fill="none" xmlns="http://www.w3.org/2000/svg">
<path d="M32.625 108.75C14.6133 108.75 0 94.1367 0 76.125C0 61.8969 9.10781 49.7984 21.7953 45.3352C21.7727 44.7234 21.75 44.1117 21.75 43.5C21.75 23.4719 37.9719 7.25 58 7.25C71.4352 7.25 83.1484 14.5453 89.4242 25.4203C92.868 23.1094 97.0367 21.75 101.5 21.75C113.508 21.75 123.25 31.4922 123.25 43.5C123.25 46.2641 122.729 48.8922 121.8 51.3391C135.031 54.0125 145 65.7258 145 79.75C145 95.768 132.018 108.75 116 108.75H32.625ZM50.5234 59.5859C48.3937 61.7156 48.3937 65.1594 50.5234 67.2664C52.6531 69.3734 56.0969 69.3961 58.2039 67.2664L67.0398 58.4305V88.8125C67.0398 91.8258 69.4641 94.25 72.4773 94.25C75.4906 94.25 77.9148 91.8258 77.9148 88.8125V58.4305L86.7508 67.2664C88.8805 69.3961 92.3242 69.3961 94.4312 67.2664C96.5383 65.1367 96.5609 61.693 94.4312 59.5859L76.3062 41.4609C74.1766 39.3312 70.7328 39.3312 68.6258 41.4609L50.5008 59.5859H50.5234Z" fill="black"/>
</svg>
