<svg width="162" height="162" viewBox="0 0 162 162" fill="none" xmlns="http://www.w3.org/2000/svg">
<path d="M81 141.75C65.475 141.75 51.9457 136.602 40.4123 126.306C28.8787 116.01 22.2705 103.158 20.5875 87.75H34.425C36 99.45 41.2043 109.125 50.0378 116.775C58.8713 124.425 69.192 128.25 81 128.25C94.1625 128.25 105.329 123.664 114.5 114.493C123.671 105.323 128.255 94.158 128.25 81C128.25 67.8375 123.664 56.6707 114.493 47.4998C105.323 38.3288 94.158 33.7455 81 33.75C73.2375 33.75 65.9812 35.55 59.2312 39.15C52.4812 42.75 46.8 47.7 42.1875 54H60.75V67.5H20.25V27H33.75V42.8625C39.4875 35.6625 46.4917 30.0938 54.7627 26.1562C63.0337 22.2188 71.7795 20.25 81 20.25C89.4375 20.25 97.3417 21.8543 104.713 25.0628C112.084 28.2713 118.496 32.6003 123.95 38.0498C129.404 43.5083 133.736 49.9208 136.944 57.2873C140.153 64.6538 141.755 72.558 141.75 81C141.75 89.4375 140.146 97.3417 136.937 104.713C133.729 112.084 129.4 118.496 123.95 123.95C118.492 129.404 112.079 133.736 104.713 136.944C97.3462 140.153 89.442 141.755 81 141.75ZM99.9 109.35L74.25 83.7V47.25H87.75V78.3L109.35 99.9L99.9 109.35Z" fill="#22C55E"/>
</svg>
