<svg width="97" height="97" viewBox="0 0 97 97" fill="none" xmlns="http://www.w3.org/2000/svg">
<path d="M53.8655 48.4619L57.4197 41.346L65.3843 31.108L75.6299 23.5678L85.868 18.8693L91.3848 18.7329L92.7716 20.8624L90.4224 31.6385L86.6864 47.5374L84.3448 51.3719L78.7976 54.4713L73.1367 55.3201L78.9037 57.9876L83.1702 61.2992L85.6179 64.7094V69.3017L83.4884 75.2733L77.0849 80.3961L73.1367 81.889L66.953 80.3961L65.5662 78.7971L62.6107 74.0987L60.5495 67.0586L56.3891 64.9216L52.3727 67.1268L53.8277 76.554L53.5094 79.5398L52.9789 81.6768L51.486 84.6626L47.6439 86.8981L42.2028 87.0118L35.1627 85.087L31.0023 81.889L28.4409 77.6225L29.0775 71.9692L36.3298 62.686L30.2521 64.9216L22.4618 65.1413L16.0659 58.1998L6.24461 42.3085L3.79688 35.2684L5.82023 33.1313H11.6857L24.2805 35.1623L38.0424 40.6034L47.9622 46.2567L53.8655 48.4619Z" fill="#41484A"/>
<path d="M50.7887 35.0562C50.7887 35.0562 51.7209 26.2428 52.706 22.7872C54.0928 17.9296 58.041 14.0951 61.3451 13.7162C64.6491 13.3448 64.2248 15.9062 62.2014 16.9672C60.2538 17.9902 58.1471 17.3916 58.1471 17.3916C58.1471 17.3916 55.4266 19.377 54.5172 23.4692C53.4487 28.2737 52.5999 35.7382 52.5999 35.7382L50.7887 35.0562ZM47.856 35.6397C47.856 35.6397 44.2412 28.2965 40.3385 23.6359C36.4434 18.9981 31.4873 18.8314 30.7901 18.7784C30.0929 18.7253 27.1602 19.2027 27.1602 20.5895C27.1602 22.4537 29.7367 22.7872 31.2145 22.5068C32.9195 22.1885 33.7228 21.173 33.7228 21.173C33.7228 21.173 36.8905 22.431 39.0048 24.9621C41.4601 27.8948 45.9918 36.7537 45.9918 36.7537L46.3101 37.9283L47.856 35.6397Z" fill="#676F72"/>
<path d="M41.5584 71.0069C40.2322 70.3476 36.2234 74.0988 36.2234 75.9176C36.2234 77.1073 37.0797 79.1155 38.8909 78.5851C40.7096 78.047 43.271 71.8557 41.5584 71.0069ZM34.4122 71.0069C36.1173 72.4998 38.9363 69.5292 40.1716 67.5968C41.6644 65.2476 42.4147 59.3821 41.9827 59.5943C41.5584 59.8065 36.2234 63.6486 36.2234 63.6486C36.2234 63.6486 32.1766 69.0518 34.4122 71.0069ZM42.5208 78.2592C42.5208 80.1234 44.5441 81.4572 46.5751 81.1389C47.636 80.9722 49.5381 79.987 49.3487 78.2592C49.1365 76.3419 48.2802 73.4547 46.2568 73.1364C44.2259 72.8181 42.5208 75.1673 42.5208 78.2592ZM53.8122 63.588C53.8122 63.588 51.0159 69.461 50.4096 70.8933C49.5533 72.9166 49.523 77.9712 51.7964 78.7897C53.4181 79.3732 53.8198 76.5465 53.8198 76.5465C53.8198 76.5465 54.1002 70.7569 54.1002 68.8396C54.1077 66.9223 53.8122 63.588 53.8122 63.588ZM55.9644 56.9268C55.9644 56.9268 61.2994 63.1181 62.8984 64.2851C64.4973 65.4597 67.2709 68.7638 70.9009 66.3085C74.5308 63.8532 64.7095 55.6385 63.8608 55.0019C63.0044 54.3654 55.3202 54.2593 55.3202 54.2593L55.9644 56.9268ZM57.8816 62.8983C57.8816 62.8983 61.6101 66.3009 62.3603 67.0587C63.9593 68.6577 65.7705 70.143 66.5207 72.3937C66.9451 73.6744 67.5892 75.5917 66.2024 76.3419C65.0581 76.9558 63.6259 75.2886 63.1105 74.7429C62.5877 74.1973 60.587 69.7944 59.42 67.2861C58.935 66.2555 57.8816 62.8983 57.8816 62.8983ZM68.7638 69.3019C67.9075 70.4537 69.0063 74.4247 70.1506 75.1673C72.2877 76.5541 74.8415 74.0988 74.8415 72.9242C74.8491 71.7496 70.575 66.8465 68.7638 69.3019ZM67.377 54.5776C67.377 54.5776 72.0679 61.9359 74.6293 63.4288C77.1907 64.9217 79.2065 64.755 79.9643 63.4288C81.6694 60.443 74.311 56.3887 74.311 56.3887L67.377 54.5776ZM73.2425 66.0963C72.6059 67.4831 75.2659 71.5374 77.0846 71.5374C78.9034 71.5374 79.5551 68.9684 79.4338 68.1272C79.2216 66.6344 74.3337 63.7319 73.2425 66.0963ZM46.6812 57.139C46.6812 57.139 41.763 65.2172 43.271 69.1958C44.4456 72.2876 47.6436 71.7572 50.4172 66.5283C53.1908 61.2994 53.7212 57.9953 53.7212 57.9953L52.8649 55.0095L46.6812 57.139Z" fill="#FF8B03"/>
<path d="M48.4924 45.7191C48.4924 45.7191 44.1198 41.7709 35.261 38.0348C26.4021 34.2988 18.5133 31.9572 11.4732 32.0633C4.43316 32.1694 3.36464 33.7684 3.04636 35.0491C2.72808 36.3298 3.98605 40.3689 5.39558 42.8394C7.10066 45.8251 13.5042 56.1769 15.7473 59.3748C17.6797 62.1409 19.0135 65.21 23.2118 66.2027C27.8723 67.3016 33.5635 64.922 33.5635 64.922C33.5635 64.922 28.1224 69.8326 27.8041 75.054C27.4858 80.2829 30.2594 84.0189 36.0188 86.0423C41.7782 88.0656 50.1899 89.6191 52.8725 83.2687C53.6531 81.4196 53.5091 79.5326 53.5091 79.5326C53.5091 79.5326 51.5691 85.0723 48.5985 85.6103C46.2492 86.0347 46.5751 84.6479 44.4381 84.4357C42.301 84.2235 42.6269 85.8225 40.3838 85.8225C38.6635 85.8225 39.2092 84.4357 37.398 83.4733C35.5868 82.5109 34.5562 84.0644 33.4498 83.155C31.6386 81.6621 33.3437 80.9119 32.5935 79.7448C31.8432 78.5702 30.123 78.2141 29.7138 76.7591C28.9635 74.0916 30.464 72.0682 32.063 69.719C33.662 67.3698 36.5417 63.9596 38.7848 62.3606C41.0279 60.7616 52.0692 55.4948 52.0692 55.4948C52.0692 55.4948 52.6528 53.5094 51.804 53.6155C50.9477 53.7216 40.9218 59.0566 39.1031 60.2312C37.2919 61.4058 29.4485 65.4677 23.7422 64.1794C20.4382 63.4291 14.4742 52.9107 12.0643 49.6369C9.65449 46.3632 5.48652 38.3304 5.81995 36.0115C6.13066 33.8744 9.76816 33.4501 15.3153 34.0942C20.8625 34.7308 25.7732 36.4434 32.7071 39.3231C39.6411 42.2028 47.5375 47.5378 48.5 47.5378C49.4548 47.5378 48.4924 45.7191 48.4924 45.7191ZM55.002 46.9998C55.002 46.9998 54.1457 44.9385 55.6385 42.3771C57.1314 39.8157 61.936 32.6013 66.839 28.2212C71.7496 23.8486 88.2851 14.7776 92.0135 17.4451C95.7496 20.1126 91.6953 30.6007 90.8389 34.1927C90.0963 37.3225 89.1339 47.3862 85.5039 51.5845C82.6849 54.8507 76.6527 55.9571 76.6527 55.9571C76.6527 55.9571 86.4588 60.6631 86.8907 66.8393C87.4212 74.4174 78.5699 83.0716 71.9542 82.8443C66.8693 82.67 65.5507 78.79 65.5507 78.79C65.5507 78.79 70.2416 81.4575 72.1664 80.927C74.0837 80.3966 72.6969 78.5778 74.5157 77.5169C76.3344 76.4559 77.8197 79.2219 79.2065 77.9412C80.5933 76.6605 79.5248 75.4859 80.4872 74.2052C81.4496 72.9245 82.8364 74.2052 83.6852 73.0306C84.5415 71.856 83.6852 70.257 84.1096 69.1885C84.5339 68.12 85.3903 67.9078 85.2842 66.3088C85.1781 64.7098 82.1923 60.9738 78.4563 59.1627C74.7203 57.3515 70.666 56.4951 67.3619 55.8586C64.0578 55.222 55.5173 54.6461 55.5173 54.6461C55.5173 54.6461 54.7671 52.9031 55.199 52.9713C56.0553 53.1153 58.1848 53.2896 61.3903 53.3957C67.8621 53.6079 78.2441 55.1008 82.8364 51.4784C87.4288 47.8561 88.1714 37.6105 88.5958 34.943C89.0202 32.2755 93.0745 20.5369 90.7328 19.3699C88.3836 18.1953 76.8346 22.8634 70.4993 27.7589C64.1639 32.6544 59.5868 39.4292 58.2 42.2028C56.8132 44.9764 55.002 46.9998 55.002 46.9998Z" fill="#676F72"/>
<path d="M54.8734 44.4684C55.457 43.6651 56.3512 43.0361 55.9647 39.1106C55.5403 34.7911 51.827 33.6999 48.8943 34.3364C46.5148 34.8517 43.1577 37.0873 44.9764 42.4678C46.583 47.2496 52.0165 45.7718 52.0165 45.7718C52.0165 45.7718 54.2824 45.2641 54.8734 44.4684Z" fill="#41484A"/>
<path d="M72.9911 30.3448C73.9483 29.7058 74.3137 28.5726 73.8071 27.8138C73.3005 27.0549 72.1138 26.9578 71.1566 27.5968C70.1993 28.2359 69.834 29.3691 70.3406 30.1279C70.8472 30.8867 72.0338 30.9839 72.9911 30.3448Z" fill="#FCFDFA"/>
<path d="M88.8232 31.4264C88.3458 30.6459 87.3 30.4716 86.421 31.2142C85.8223 31.7144 85.3297 32.9117 85.8374 33.6695C86.3452 34.4273 87.4592 34.5183 88.1867 33.9348C89.0809 33.2148 89.2552 32.1388 88.8232 31.4264ZM79.0626 26.6219C78.5549 25.8641 77.1908 25.7731 76.236 26.4097C75.2811 27.0462 74.5612 28.236 75.3266 29.3955C75.857 30.1988 77.0771 30.1836 78.2593 29.5016C79.3809 28.865 79.5703 27.3873 79.0626 26.6219ZM91.862 19.7409C91.862 20.567 91.3316 21.393 90.21 21.2338C89.187 21.0898 88.7171 20.7034 88.7171 19.5818C88.7171 18.7558 89.5053 18.248 90.3464 18.248C91.1876 18.248 91.862 18.9149 91.862 19.7409ZM90.5813 26.2505C90.5813 27.0766 89.7629 27.7965 88.9293 27.7434C88.126 27.6904 87.4364 27.213 87.4364 26.0914C87.4364 25.2654 88.2473 24.6516 89.0885 24.6516C89.9296 24.6516 90.5813 25.4245 90.5813 26.2505Z" fill="#FCFDFA"/>
<path d="M86.2313 42.3089C87.1312 42.3089 87.8606 41.5794 87.8606 40.6796C87.8606 39.7798 87.1312 39.0503 86.2313 39.0503C85.3315 39.0503 84.6021 39.7798 84.6021 40.6796C84.6021 41.5794 85.3315 42.3089 86.2313 42.3089Z" fill="#FCFDFA"/>
<path d="M15.7169 56.2298C16.4996 56.2298 17.134 55.5851 17.134 54.7899C17.134 53.9947 16.4996 53.3501 15.7169 53.3501C14.9343 53.3501 14.2998 53.9947 14.2998 54.7899C14.2998 55.5851 14.9343 56.2298 15.7169 56.2298Z" fill="#FCFDFA"/>
<path d="M7.57825 34.8369C8.20723 35.678 7.71465 36.6177 6.92653 37.2619C6.14598 37.906 5.06989 37.8908 4.53184 37.2315C3.9938 36.5723 4.19083 35.5113 4.97895 34.8672C5.76708 34.223 6.96442 34.0033 7.57825 34.8369ZM12.6859 46.1358C13.762 46.348 14.0575 47.2953 13.9136 48.2122C13.7696 49.1368 12.9436 49.7733 12.0645 49.6369C11.1854 49.5005 10.5868 48.6442 10.7232 47.7197C10.8596 46.7951 11.625 45.9312 12.6859 46.1358ZM9.44247 40.7554C10.223 41.5283 9.94262 42.4756 9.31364 43.1652C8.68465 43.8548 7.64645 43.9306 6.98715 43.3244C6.32786 42.7257 6.30512 41.6799 6.93411 40.9903C7.56309 40.3007 8.67708 39.99 9.44247 40.7554ZM22.5602 37.5953C23.3483 38.2167 23.121 39.217 22.545 40.0203C21.9691 40.8236 20.9688 41.0964 20.3019 40.6265C19.635 40.1567 19.5668 39.1185 20.1428 38.3076C20.7187 37.5044 21.7797 36.9815 22.5602 37.5953ZM20.12 37.1103C20.0897 38.1409 19.1273 38.5653 18.1194 38.5729C17.1115 38.588 16.2855 37.9136 16.2779 37.08C16.2704 36.2388 17.0736 35.5492 18.0815 35.5416C19.0894 35.5265 20.1504 36.0873 20.12 37.1103ZM33.2378 75.1676C33.2378 76.0998 32.6467 76.85 31.7146 76.85C30.7825 76.85 30.0322 76.0922 30.0322 75.1525C30.0322 74.2204 30.7825 73.455 31.7146 73.455C32.6467 73.455 33.2378 74.228 33.2378 75.1676ZM36.0644 81.1392C35.4582 81.8591 34.2154 81.753 33.5788 81.2226C32.9498 80.6921 32.9271 79.6766 33.5333 78.9567C34.1396 78.2368 35.1399 78.0776 35.7764 78.6081C36.4054 79.1386 36.6707 80.4193 36.0644 81.1392Z" fill="#FCFDFA"/>
<path d="M82.1796 72.1712C82.9016 71.6847 83.1531 70.7952 82.7415 70.1843C82.3299 69.5734 81.411 69.4726 80.689 69.959C79.9671 70.4455 79.7155 71.335 80.1271 71.9459C80.5388 72.5568 81.4577 72.6576 82.1796 72.1712Z" fill="#FCFDFA"/>
<path d="M84.0377 67.298C84.7596 66.8116 84.9657 65.8545 84.4979 65.1603C84.0302 64.4662 83.0657 64.2978 82.3438 64.7842C81.6219 65.2707 81.4158 66.2278 81.8836 66.9219C82.3513 67.6161 83.3157 67.7845 84.0377 67.298Z" fill="#FCFDFA"/>
<path d="M72.1437 32.9575C69.4989 31.8587 66.7405 33.3137 63.6107 37.7923C60.4809 42.271 58.7759 45.4008 60.1248 46.5375C61.4737 47.6742 67.7029 41.8694 69.0139 40.8463C70.9312 39.3534 75.0612 34.1624 72.1437 32.9575ZM66.8087 45.469C68.5668 44.4687 73.7048 44.9006 76.4784 44.7566C78.3274 44.6581 81.0328 44.9461 81.101 45.8934C81.245 47.8106 80.5327 49.0231 78.1152 49.8794C75.6978 50.7358 70.0066 50.8722 66.3767 50.948C64.2397 50.9934 62.277 51.2056 62.0345 50.2356C61.898 49.6673 63.6789 47.2498 66.8087 45.469ZM75.2052 37.08C76.8421 37.368 82.1013 37.224 83.5942 36.0873C84.5036 35.3901 85.0189 32.4573 83.5942 31.8208C82.1695 31.1842 78.1152 31.3206 76.5541 32.5331C75.5917 33.2682 73.8109 36.8375 75.2052 37.08ZM82.9577 23.7122C82.6848 25.3869 85.3751 25.3491 86.5876 24.9929C87.8001 24.6367 89.4294 22.7194 88.6488 21.7191C87.8607 20.7188 83.3063 21.5069 82.9577 23.7122ZM81.0328 27.8347C81.0328 29.0472 82.0256 29.4716 83.4502 29.4716C84.8749 29.4716 85.7995 28.5698 85.7995 27.6225C85.7995 26.3418 84.587 25.8416 83.0259 26.1296C81.8361 26.3418 81.0328 26.8419 81.0328 27.8347ZM71.5071 42.559C71.5071 43.4684 74.0685 43.1955 77.7666 43.1955C81.4648 43.1955 82.3211 42.6272 82.7455 41.2025C83.1698 39.7778 83.0334 38.8533 80.8282 38.7851C78.623 38.7169 74.2883 38.9291 73.0076 39.8536C72.4241 40.2704 71.5071 41.8466 71.5071 42.559ZM22.075 57.2757C21.9234 58.905 23.3557 60.9738 27.6222 60.6176C31.8887 60.2615 36.9433 57.7455 38.2922 57.1317C40.7778 55.995 43.0588 55.0705 43.0588 53.9337C43.0588 52.653 40.217 52.2287 36.3749 51.8725C32.5328 51.5163 29.691 52.2287 26.4855 54.0095C23.8104 55.4948 22.1432 56.4952 22.075 57.2757ZM17.8767 51.6603C17.7479 52.6455 19.3696 55.0023 20.4381 55.0705C21.5066 55.1387 27.122 52.1529 27.266 51.1602C27.41 50.1674 25.9853 48.5987 24.8486 48.3184C23.7119 48.0304 18.0207 50.5918 17.8767 51.6603ZM24.8486 40.7781C23.1359 42.4908 25.1366 45.6887 28.8347 47.5378C32.5328 49.3869 38.4362 49.887 40.7854 50.2432C43.1346 50.5994 44.8397 50.6676 45.1959 49.9552C45.9613 48.432 40.2852 45.613 35.026 43.1273C31.7447 41.5738 26.1975 39.4292 24.8486 40.7781ZM8.13125 37.2922C8.34344 39.4292 14.0346 38.8836 14.1028 36.792C14.1786 34.7308 7.91906 35.1627 8.13125 37.2922ZM11.8294 42.271C12.716 43.7487 16.3838 42.415 15.1713 40.4902C14.0195 38.6638 10.5487 40.1416 11.8294 42.271ZM15.8155 48.1744C16.399 49.1671 18.339 49.0989 20.1577 48.2426C21.3702 47.6742 22.9616 46.5072 22.6434 45.1128C22.2872 43.5517 19.3696 43.3319 17.4523 44.2565C16.0959 44.9158 14.603 46.1131 15.8155 48.1744Z" fill="#FF8B03"/>
<path d="M56.1236 53.9863L51.3721 55.3201C51.3721 55.3201 52.8422 61.6857 53.3954 64.0652C53.9789 66.5736 57.715 84.655 60.6477 84.1776C63.6714 83.685 58.6243 64.9746 58.1393 62.9437C57.6846 60.9961 56.1236 53.9863 56.1236 53.9863Z" fill="#676F72"/>
<path d="M55.6461 62.5269C57.0481 62.2238 57.8211 61.3826 57.8211 61.3826L58.7532 65.399C58.7532 65.399 58.0484 66.0507 56.6616 66.369C55.1308 66.7252 53.9411 66.4523 53.9411 66.4523L53.0241 62.4663C53.0165 62.4587 54.1457 62.8452 55.6461 62.5269ZM51.3721 55.3201L56.116 53.9863L56.8207 57.1843C56.8207 57.1843 55.5703 57.8133 54.5549 58.0255C53.5394 58.2377 52.0465 58.2528 52.0465 58.2528L51.3721 55.3201ZM54.7898 70.0974C54.7898 70.0974 56.1387 70.2566 57.3664 69.9913C58.594 69.7261 59.6171 68.938 59.6171 68.938L60.4052 72.4694C60.4052 72.4694 59.2382 73.2954 58.1697 73.4924C57.0708 73.697 55.684 73.5758 55.6992 73.5758L54.7898 70.0974Z" fill="#41484A"/>
<path d="M50.9479 42.9452C49.2883 43.4075 48.0455 44.4381 47.9621 46.2493C47.856 48.5985 48.3865 49.9853 49.0306 52.2208C49.4399 53.6531 49.9173 56.9344 54.2595 55.8508C57.2453 55.1005 56.927 52.3269 56.821 50.3036C56.7149 48.2651 56.2905 45.6127 55.5402 44.4381C54.8431 43.3469 52.8728 42.4147 50.9479 42.9452ZM54.9719 35.9354C55.6312 36.913 55.6539 38.2619 54.79 38.8379C53.9337 39.4138 52.5166 39.0046 51.8573 38.027C51.198 37.0494 51.3647 35.7915 52.221 35.2079C53.0849 34.632 54.3126 34.9579 54.9719 35.9354ZM47.9697 39.0879C47.6514 40.2247 46.5602 41.0431 45.5674 40.7627C44.5671 40.4823 44.0442 39.2244 44.3549 38.0876C44.6732 36.9509 45.7342 36.2537 46.7345 36.5341C47.7348 36.8145 48.2804 37.9512 47.9697 39.0879Z" fill="#303031"/>
</svg>
