<svg width="136" height="136" viewBox="0 0 136 136" fill="none" xmlns="http://www.w3.org/2000/svg">
<g clip-path="url(#clip0_254_199)">
<path d="M71.0627 72.1288L78.8965 70.7505L91.864 71.0587L104.021 74.8056L113.889 80.2374L117.282 84.5899L116.396 86.9717L106.338 91.4965L91.3372 97.9553L86.862 98.3553L81.07 95.7418L77.0192 91.6974L78.3073 97.9195L78.1848 103.319L76.9009 107.316L73.2102 110.048L67.1439 111.891L59.2162 109.793L55.6669 107.508L53.1868 101.65L53.6465 99.5843L55.6637 94.4131L60.0949 88.5671L59.3365 83.9518L55.1741 82.0363L48.4637 88.8157L45.8748 90.3367L43.8417 91.1821L40.5537 91.7592L36.4707 90.0018L33.1414 85.6967L30.4988 78.8934L30.5931 73.6468L32.4976 69.0493L37.4197 66.1967L49.196 66.5007L43.7826 62.9467L38.97 56.8167L40.7425 47.5457L47.6691 30.196L51.8703 24.0393L54.7919 24.3937L58.2823 29.1075L64.1453 40.4381L67.9621 54.7359L69.3219 66.0722L71.0627 72.1288Z" fill="#41484A"/>
<path d="M80.0058 61.6785C80.0058 61.6785 87.6435 57.1829 91.0069 55.9182C95.736 54.142 101.167 55.0331 103.438 57.4629C105.703 59.8973 103.391 61.0805 101.335 60.0858C99.3536 59.1294 98.581 57.0801 98.581 57.0801C98.581 57.0801 95.3664 56.0752 91.5366 57.7796C87.0395 59.78 80.5355 63.54 80.5355 63.54L80.0058 61.6785ZM77.7917 59.6689C77.7917 59.6689 81.542 52.3939 82.965 46.484C84.3742 40.5937 81.5588 36.5115 81.1866 35.9197C80.8143 35.3278 78.6854 33.255 77.5709 34.0802C76.0727 35.1896 77.338 37.4587 78.4427 38.4795C79.7132 39.6604 81.0073 39.7016 81.0073 39.7016C81.0073 39.7016 81.8814 42.9959 81.1055 46.2013C80.2097 49.9198 75.787 58.8336 75.787 58.8336L75.0324 59.7884L77.7917 59.6689Z" fill="#676F72"/>
<path d="M45.6208 75.6545C45.3614 74.1963 39.9611 73.2069 38.4995 74.2892C37.5433 74.9973 36.439 76.8805 37.9431 78.0204C39.4579 79.1619 45.9578 77.5359 45.6208 75.6545ZM41.3681 69.9114C41.183 72.1701 45.248 72.6679 47.5361 72.5106C50.3125 72.3124 55.4727 69.4248 55.0452 69.2039C54.6221 68.9892 48.3595 66.9881 48.3595 66.9881C48.3595 66.9881 41.609 66.9513 41.3681 69.9114ZM40.3651 80.7437C38.867 81.8531 38.9992 84.2729 40.4635 85.7156C41.2289 86.4691 43.1525 87.4114 44.4284 86.231C45.8429 84.9195 47.6537 82.5131 46.7054 80.6976C45.7526 78.876 42.85 78.9037 40.3651 80.7437ZM58.8752 81.0874C58.8752 81.0874 52.4912 82.3351 50.9794 82.7002C48.8437 83.2161 44.7635 86.1997 45.4587 88.5138C45.9548 90.1644 48.4655 88.805 48.4655 88.805C48.4655 88.805 53.2853 85.585 54.8261 84.444C56.3714 83.3092 58.8752 81.0874 58.8752 81.0874ZM65.5093 78.853C65.5093 78.853 63.7084 86.8249 63.722 88.8044C63.7296 90.7885 62.7248 94.9837 66.8582 96.4398C70.9915 97.8959 71.7488 85.1145 71.7553 84.0535C71.7573 82.9865 67.2697 76.7479 67.2697 76.7479L65.5093 78.853ZM61.8511 83.9474C61.8511 83.9474 61.3354 88.9687 61.1728 90.0226C60.8393 92.2592 60.7235 94.5986 59.3611 96.5409C58.5844 97.6441 57.4269 99.3027 55.9987 98.6347C54.8245 98.0803 55.312 95.9372 55.4438 95.1983C55.5711 94.4534 57.919 90.2255 59.2404 87.7949C59.78 86.7918 61.8511 83.9474 61.8511 83.9474ZM63.1808 96.5037C61.7455 96.5009 59.2081 99.7471 59.2923 101.109C59.4495 103.651 62.9425 104.243 63.8865 103.544C64.8349 102.851 66.2319 96.4981 63.1808 96.5037ZM74.1888 86.6269C74.1888 86.6269 71.0667 94.7756 71.3912 97.7225C71.7157 100.669 73.0493 102.19 74.566 102.01C77.9803 101.603 76.8596 93.2772 76.8596 93.2772L74.1888 86.6269ZM68.4222 98.1954C66.9289 98.5091 65.2535 103.059 66.3358 104.521C67.4182 105.983 69.8706 104.978 70.4744 104.38C71.5479 103.321 70.9717 97.6654 68.4222 98.1954ZM59.8144 71.5187C59.8144 71.5187 50.3954 72.3735 48.0955 75.953C46.3097 78.737 48.6391 80.9914 54.4919 80.1087C60.3447 79.2261 63.3157 77.6861 63.3157 77.6861L65.2056 75.2211L59.8144 71.5187Z" fill="#FF8B03"/>
<path d="M70.07 66.178C70.07 66.178 70.641 60.3144 68.3716 50.9717C66.1023 41.629 63.2896 33.8956 59.0148 28.3009C54.7401 22.7062 52.8192 22.799 51.6005 23.3054C50.3818 23.8117 47.8844 27.2264 46.7378 29.8293C45.3529 32.9764 40.8443 44.2829 39.6091 47.9887C38.5362 51.1877 36.8633 54.086 38.5639 58.0508C40.4543 62.4501 45.7534 65.6079 45.7534 65.6079C45.7534 65.6079 38.5689 64.1573 34.1834 67.0087C29.7917 69.8646 28.4398 74.3169 30.2411 80.1496C32.0423 85.9822 35.7996 93.6668 42.4996 92.0437C44.4501 91.5706 45.8809 90.332 45.8809 90.332C45.8809 90.332 40.2745 92.0694 38.0743 90.0023C36.3352 88.3668 37.6436 87.8035 36.5424 85.9597C35.4412 84.116 34.3501 85.3295 33.0152 83.5268C31.9916 82.1443 33.4308 81.7575 33.1264 79.7292C32.822 77.7009 30.9602 77.7971 31.0326 76.3668C31.1546 74.0228 32.7722 74.9467 33.2636 73.6492C33.7612 72.3473 33.0237 70.7529 33.9495 69.5581C35.6468 67.3678 38.1658 67.3696 41.0053 67.2566C43.8448 67.1437 48.2991 67.4286 50.919 68.2797C53.5389 69.1309 64.3422 74.8701 64.3422 74.8701C64.3422 74.8701 66.2851 74.1575 65.6948 73.5386C65.0999 72.9135 54.8461 68.031 52.8198 67.2683C50.798 66.5117 42.8661 62.6256 40.5056 57.273C39.1424 54.1712 44.0465 43.1187 45.2434 39.2339C46.4402 35.349 50.4156 27.2191 52.4776 26.1071C54.3799 25.0851 56.8856 27.7559 59.669 32.5972C62.4585 37.4341 64.0044 42.3997 65.8165 49.6859C67.6286 56.9722 68.0402 66.493 68.6129 67.2665C69.1811 68.0338 70.07 66.178 70.07 66.178ZM72.9146 72.1717C72.9146 72.1717 74.0616 70.2568 77.0085 69.9323C79.9554 69.6078 88.6124 69.1758 95.0503 70.5096C101.487 71.854 118.617 79.7447 118.692 84.3285C118.771 88.9184 107.93 91.9016 104.533 93.3509C101.576 94.6166 92.9156 99.832 87.3815 99.4132C83.079 99.0913 78.6001 94.9019 78.6001 94.9019C78.6001 94.9019 80.6536 105.583 75.9472 109.606C70.1726 114.542 57.9503 112.578 54.196 107.126C51.3101 102.936 53.6436 99.5674 53.6436 99.5674C53.6436 99.5674 54.2914 104.925 55.8631 106.156C57.4304 107.381 58.0668 105.184 60.0017 106.014C61.9367 106.845 60.5977 109.684 62.4522 110.037C64.3067 110.389 64.6148 108.832 66.2168 108.843C67.8188 108.854 67.6148 110.731 69.0639 110.714C70.5174 110.703 71.2929 109.063 72.4041 108.769C73.5154 108.474 74.1955 109.036 75.4174 107.999C76.6393 106.962 77.865 102.339 77.0973 98.2589C76.3296 94.1786 74.6051 90.4108 73.1504 87.3766C71.6958 84.3425 67.0762 77.1361 67.0762 77.1361C67.0762 77.1361 68.0305 75.4959 68.2328 75.8836C68.6266 76.6575 69.7538 78.4726 71.5761 81.1119C75.2569 86.4392 80.2354 95.6712 85.8794 97.2063C91.5233 98.7413 100.199 93.2411 102.596 91.9947C104.992 90.7483 116.838 87.0211 116.383 84.4447C115.929 81.8578 105.304 75.3543 97.6 73.1761C89.8956 70.9979 81.7271 71.3511 78.6728 71.8871C75.6185 72.4232 72.9146 72.1717 72.9146 72.1717Z" fill="#676F72"/>
<path d="M74.8722 70.5619C75.865 70.5528 76.9026 70.8971 79.8274 68.2505C83.0462 65.3389 81.7135 61.7053 79.4567 59.7272C77.6265 58.1216 73.8321 56.754 70.5904 61.4175C67.7035 65.5542 72.1245 69.0415 72.1245 69.0415C72.1245 69.0415 73.881 70.5603 74.8722 70.5619Z" fill="#41484A"/>
<path d="M97.0047 76.7178C98.088 77.1068 99.2161 76.7261 99.5245 75.8674C99.8328 75.0087 99.2047 73.9972 98.1215 73.6082C97.0383 73.2192 95.9102 73.5999 95.6018 74.4586C95.2934 75.3173 95.9215 76.3288 97.0047 76.7178Z" fill="#FCFDFA"/>
<path d="M105.557 90.0852C105.9 89.2371 105.418 88.2929 104.298 88.0284C103.54 87.8449 102.284 88.1615 101.978 89.0206C101.671 89.8796 102.261 90.829 103.162 91.0664C104.273 91.3566 105.242 90.8563 105.557 90.0852ZM103.61 79.3819C103.917 78.5229 103.178 77.3725 102.098 76.984C101.018 76.5954 99.6339 76.7249 99.1575 78.03C98.8276 78.9343 99.5659 79.9058 100.818 80.45C101.997 80.9726 103.297 80.2454 103.61 79.3819ZM116.757 85.5735C116.093 86.065 115.113 86.1303 114.574 85.1342C114.081 84.2264 114.112 83.6188 115.013 82.9513C115.677 82.4598 116.554 82.791 117.054 83.467C117.555 84.1431 117.42 85.0819 116.757 85.5735ZM110.763 88.4181C110.099 88.9096 109.034 88.6803 108.58 87.9788C108.145 87.3017 108.118 86.4633 109.019 85.7959C109.683 85.3044 110.659 85.5907 111.16 86.2667C111.66 86.9428 111.427 87.9265 110.763 88.4181Z" fill="#FCFDFA"/>
<path d="M95.2692 94.4781C95.8047 95.2012 96.8251 95.3534 97.5482 94.8179C98.2714 94.2824 98.4235 93.262 97.888 92.5389C97.3526 91.8157 96.3322 91.6636 95.6091 92.1991C94.8859 92.7346 94.7338 93.7549 95.2692 94.4781Z" fill="#FCFDFA"/>
<path d="M42.1189 46.0928C42.5846 46.7218 43.4803 46.848 44.1193 46.3748C44.7584 45.9016 44.8989 45.0081 44.4332 44.3791C43.9674 43.7501 43.0718 43.6239 42.4327 44.0971C41.7936 44.5703 41.6531 45.4638 42.1189 46.0928Z" fill="#FCFDFA"/>
<path d="M54.4679 26.8214C54.1662 27.8274 53.1179 27.9908 52.1312 27.7407C51.1491 27.4967 50.5209 26.6229 50.7305 25.7982C50.9402 24.9734 51.9101 24.5004 52.8967 24.7505C53.8834 25.0005 54.7726 25.832 54.4679 26.8214ZM48.4269 37.6501C48.8968 38.6412 48.3114 39.4424 47.4888 39.8724C46.6601 40.3068 45.657 40.0218 45.2435 39.2342C44.83 38.4465 45.1619 37.4558 45.9861 37.0153C46.8103 36.5747 47.96 36.6757 48.4269 37.6501ZM50.8208 31.8416C50.6641 32.9289 49.736 33.2673 48.8075 33.1722C47.879 33.0771 47.2003 32.2878 47.2951 31.3972C47.3839 30.5111 48.2108 29.8705 49.1393 29.9656C50.0679 30.0607 50.9805 30.771 50.8208 31.8416ZM61.1667 40.5033C61.1363 41.5064 60.1971 41.919 59.2088 41.9342C58.2205 41.9493 57.406 41.3078 57.3868 40.4922C57.3675 39.6767 58.1613 39.0041 59.1557 38.9844C60.144 38.9692 61.1955 39.5107 61.1667 40.5033ZM60.1044 38.2536C59.2581 38.8425 58.3443 38.3216 57.7384 37.5161C57.1264 36.7152 57.1769 35.65 57.8423 35.1478C58.5138 34.6411 59.5461 34.8763 60.152 35.6818C60.7639 36.4828 60.9446 37.6691 60.1044 38.2536ZM37.3256 71.4434C36.5765 71.9981 35.6218 71.9695 35.0671 71.2204C34.5124 70.4713 34.675 69.4174 35.4302 68.8582C36.1793 68.3035 37.2408 68.451 37.7955 69.2001C38.3502 69.9491 38.0808 70.8842 37.3256 71.4434ZM34.2086 77.2687C33.2692 77.2099 32.6149 76.1479 32.6624 75.3207C32.7144 74.4995 33.517 73.8769 34.4563 73.9357C35.3957 73.9945 36.1189 74.7037 36.0714 75.531C36.0193 76.3522 35.1479 77.3275 34.2086 77.2687Z" fill="#FCFDFA"/>
<path d="M68.8587 108.993C69.6792 109.284 70.5438 108.956 70.7898 108.262C71.0358 107.568 70.57 106.769 69.7494 106.479C68.9289 106.188 68.0643 106.515 67.8183 107.209C67.5723 107.904 68.0381 108.702 68.8587 108.993Z" fill="#FCFDFA"/>
<path d="M73.8808 107.586C74.7013 107.876 75.5931 107.473 75.8726 106.684C76.1522 105.894 75.7136 105.019 74.893 104.729C74.0724 104.438 73.1806 104.842 72.9011 105.631C72.6216 106.42 73.0602 107.295 73.8808 107.586Z" fill="#FCFDFA"/>
<path d="M94.4007 77.5916C93.7099 74.8122 90.8991 73.4612 85.4373 73.6112C79.9755 73.7612 76.4455 74.2534 76.3347 76.0139C76.2239 77.7744 84.596 79.3261 86.1983 79.7709C88.5391 80.4234 95.1686 80.6534 94.4007 77.5916ZM81.171 80.7496C83.0211 81.5672 85.7316 85.9535 87.4978 88.0968C88.6774 89.5242 90.0559 91.8698 89.3352 92.4883C87.8801 93.7449 86.4817 93.894 84.3549 92.4608C82.2281 91.0276 78.7317 86.5351 76.5107 83.6629C75.2024 81.9726 73.8639 80.5215 74.4991 79.7493C74.8747 79.3015 77.8773 79.2941 81.171 80.7496ZM92.9096 82.5053C93.6522 83.9922 96.8977 88.1331 98.6996 88.6564C99.8011 88.9724 102.465 87.6413 102.128 86.1175C101.792 84.5937 99.2699 81.4166 97.3664 80.8836C96.203 80.5476 92.2747 81.2404 92.9096 82.5053ZM108.266 80.7805C106.758 81.5579 108.389 83.6974 109.397 84.4599C110.405 85.2224 112.915 85.3908 113.255 84.1683C113.59 82.9396 110.246 79.7484 108.266 80.7805ZM103.808 81.6869C102.833 82.4084 103.083 83.4588 103.931 84.6038C104.779 85.7487 106.053 85.9551 106.815 85.3914C107.844 84.6292 107.524 83.3572 106.364 82.2739C105.485 81.4441 104.605 81.0961 103.808 81.6869ZM86.3056 82.7938C85.5748 83.335 87.3183 85.2311 89.5191 88.2031C91.7198 91.1752 92.6861 91.5251 94.0836 91.0184C95.4811 90.5116 96.143 89.8518 94.8855 88.039C93.628 86.2261 90.8779 82.8688 89.3728 82.3897C88.6905 82.1688 86.8781 82.3699 86.3056 82.7938ZM45.0618 51.8251C43.6622 52.6729 42.8519 55.0551 45.6771 58.2719C48.5023 61.4888 53.5322 64.0537 54.8282 64.7725C57.2209 66.0936 59.3213 67.3766 60.2349 66.7002C61.2641 65.938 59.914 63.4017 57.9139 60.102C55.9137 56.8023 53.6501 54.9423 50.3113 53.426C47.5257 52.16 45.7297 51.4154 45.0618 51.8251ZM47.0763 45.1095C46.2079 45.5922 45.2789 48.298 45.8599 49.1973C46.441 50.0966 52.1822 52.8327 53.0657 52.3576C53.9492 51.8826 54.3621 49.8041 53.911 48.7237C53.4659 47.6388 48.0207 44.5893 47.0763 45.1095ZM59.9707 44.2366C57.5751 43.8794 56.1956 47.3903 56.9103 51.4627C57.625 55.535 60.7361 60.577 61.8479 62.6769C62.9597 64.7768 63.9195 66.1877 64.704 66.05C66.3836 65.7587 65.2714 59.5195 64.1393 53.8137C63.4351 50.2522 61.8575 44.5179 59.9707 44.2366ZM52.8239 28.7271C51.2327 30.1693 55.058 34.4184 56.7794 33.2285C58.4811 32.0628 54.4089 27.2893 52.8239 28.7271ZM51.0233 34.662C50.3634 36.2539 53.6179 38.4079 54.4433 36.288C55.2256 34.2754 51.9725 32.3655 51.0233 34.662ZM48.6511 41.3785C48.2006 42.4382 49.4098 43.9567 51.1804 44.9088C52.3587 45.545 54.2436 46.1294 55.1748 45.0438C56.2174 43.8286 54.6578 41.3531 52.7739 40.3625C51.4368 39.6647 49.5861 39.1774 48.6511 41.3785Z" fill="#FF8B03"/>
<path d="M67.9672 77.2312L64.0678 74.2063C64.0678 74.2063 59.8269 79.1759 58.2437 81.0366C56.5751 82.9982 44.2671 96.7608 46.3961 98.8336C48.5913 100.97 60.6246 85.78 61.9682 84.1816C63.2628 82.6572 67.9672 77.2312 67.9672 77.2312Z" fill="#676F72"/>
<path d="M60.8194 81.9299C61.8973 82.8762 63.0333 82.9968 63.0333 82.9968L60.3602 86.1361C60.3602 86.1361 59.417 85.9575 58.336 85.0324C57.1388 84.0141 56.65 82.8956 56.65 82.8956L59.3078 79.7866C59.3094 79.776 59.6707 80.9134 60.8194 81.9299ZM64.0678 74.2063L67.9627 77.2251L65.812 79.6946C65.812 79.6946 64.5625 79.064 63.7876 78.3741C63.0128 77.6843 62.1122 76.4936 62.1122 76.4936L64.0678 74.2063ZM54.2257 85.7469C54.2257 85.7469 54.9005 86.9256 55.8443 87.7544C56.788 88.5832 58.0302 88.9364 58.0302 88.9364L55.6612 91.6712C55.6612 91.6712 54.3028 91.2249 53.5086 90.4834C52.6903 89.7221 51.9624 88.5355 51.9715 88.5476L54.2257 85.7469Z" fill="#41484A"/>
<path d="M73.7602 66.501C72.4011 65.4423 70.8332 65.0568 69.3281 66.0676C67.377 67.3804 66.5781 68.632 65.1648 70.48C64.2573 71.6612 61.9043 73.9976 65.3593 76.8424C67.739 78.7954 69.7787 76.8891 71.3416 75.5998C72.9167 74.3014 74.7958 72.382 75.2933 71.08C75.7554 69.8703 75.332 67.7322 73.7602 66.501ZM81.7883 65.5634C81.395 66.675 80.3245 67.496 79.3475 67.1444C78.3751 66.799 77.8606 65.4166 78.2539 64.305C78.6472 63.1934 79.7574 62.5788 80.7359 62.9197C81.7129 63.2713 82.1816 64.4518 81.7883 65.5634ZM75.0878 61.8121C73.9849 62.2327 72.6777 61.8428 72.3123 60.8781C71.9424 59.9073 72.6422 58.7385 73.7406 58.3118C74.8435 57.8911 76.0352 58.3288 76.4051 59.2996C76.7751 60.2704 76.1862 61.3853 75.0878 61.8121Z" fill="#303031"/>
</g>
<defs>
<clipPath id="clip0_254_199">
<rect width="97" height="97" fill="white" transform="translate(77.9551) rotate(53.4808)"/>
</clipPath>
</defs>
</svg>
