<svg width="56" height="56" viewBox="0 0 56 56" fill="none" xmlns="http://www.w3.org/2000/svg">
<path d="M50.4852 47.0436H45.3234V9.19069C45.3234 8.27803 44.9609 7.40275 44.3155 6.75741C43.6702 6.11206 42.7949 5.74951 41.8822 5.74951H14.3528C13.4402 5.74951 12.5649 6.11206 11.9195 6.75741C11.2742 7.40275 10.9116 8.27803 10.9116 9.19069V47.0436H5.74988C5.29356 47.0436 4.85592 47.2249 4.53325 47.5476C4.21057 47.8703 4.0293 48.3079 4.0293 48.7642C4.0293 49.2205 4.21057 49.6582 4.53325 49.9809C4.85592 50.3035 5.29356 50.4848 5.74988 50.4848H50.4852C50.9415 50.4848 51.3791 50.3035 51.7018 49.9809C52.0245 49.6582 52.2058 49.2205 52.2058 48.7642C52.2058 48.3079 52.0245 47.8703 51.7018 47.5476C51.3791 47.2249 50.9415 47.0436 50.4852 47.0436ZM35.8602 31.5583C35.3497 31.5583 34.8507 31.407 34.4263 31.1234C34.0019 30.8398 33.6711 30.4367 33.4758 29.9651C33.2804 29.4935 33.2293 28.9746 33.3289 28.4739C33.4285 27.9733 33.6743 27.5134 34.0352 27.1525C34.3962 26.7915 34.856 26.5457 35.3567 26.4462C35.8573 26.3466 36.3762 26.3977 36.8478 26.593C37.3194 26.7884 37.7225 27.1192 38.0061 27.5436C38.2897 27.968 38.4411 28.467 38.4411 28.9775C38.4411 29.6619 38.1691 30.3184 37.6851 30.8024C37.2011 31.2864 36.5447 31.5583 35.8602 31.5583Z" fill="white"/>
</svg>
