<svg width="16" height="16" viewBox="0 0 16 16" fill="none" xmlns="http://www.w3.org/2000/svg">
<path d="M13.65 2.35C12.9099 1.60485 12.0296 1.01356 11.0599 0.610231C10.0902 0.206901 9.05024 -0.000494355 8 8.84845e-07C5.87827 8.84845e-07 3.84344 0.842856 2.34315 2.34315C0.842855 3.84344 0 5.87827 0 8C0 10.1217 0.842855 12.1566 2.34315 13.6569C3.84344 15.1571 5.87827 16 8 16C11.73 16 14.84 13.45 15.73 10H13.65C13.2381 11.1695 12.4733 12.1824 11.4613 12.8988C10.4493 13.6153 9.23994 14 8 14C6.4087 14 4.88258 13.3679 3.75736 12.2426C2.63214 11.1174 2 9.5913 2 8C2 6.4087 2.63214 4.88258 3.75736 3.75736C4.88258 2.63214 6.4087 2 8 2C9.66 2 11.14 2.69 12.22 3.78L9 7H16V8.84845e-07L13.65 2.35Z" fill="#5F6367"/>
</svg>
