<svg width="156" height="156" viewBox="0 0 156 156" fill="none" xmlns="http://www.w3.org/2000/svg">
<g clip-path="url(#clip0_254_303)">
<path d="M86.9577 78.2982C86.0373 79.2186 85.1255 80.1736 84.2289 81.161C86.0265 84.8426 89.1529 88.1073 95.2415 92.1736C99.5065 95.0212 114.596 100.038 122.286 99.4094C125.015 99.1869 127.735 97.7803 130.008 95.5074C134.64 90.875 137.41 82.6388 134.595 73.4887C128.826 54.7519 105.675 59.5808 86.9577 78.2982Z" fill="#1C6399"/>
<path d="M77.0018 9.30578C76.5611 9.74654 76.129 10.2694 75.712 10.8809C70.1354 19.0544 66.6893 42.0541 70.2759 67.1819C70.2759 67.1819 79.7199 80.0353 81.9539 82.2694C82.6799 82.9953 85.7653 80.6187 89.6414 76.7425C97.6723 68.7116 109.095 54.242 109.914 47.65C110.82 40.3537 96.618 18.5813 87.0314 9.69469C84.3933 7.25536 80.3918 5.91579 77.0018 9.30578Z" fill="#1C6399"/>
<path d="M88.6584 49.344L102.039 34.0793C102.039 34.0793 107.579 44.178 105.397 50.8413C103.214 57.5046 91.9598 70.7599 91.9598 70.7599C91.9598 70.7599 87.7877 56.5193 87.63 52.2305C87.5889 51.1654 87.9562 50.1412 88.6584 49.344ZM85.5644 44.003L84.214 10.1312C84.214 10.1312 95.81 21.7185 100.265 31.3937C100.265 31.3937 89.4535 43.8431 88.3322 45.0163C86.8478 46.5698 85.666 46.5374 85.5644 44.003ZM89.03 73.6897L82.4467 43.3397C82.413 42.9055 82.2715 42.4866 82.0349 42.121C81.7983 41.7554 81.4742 41.4546 81.092 41.246L72.0153 36.3523L71.7711 65.1553L82.9782 80.0094L89.03 73.6897ZM79.3851 36.7693C80.6339 37.2748 81.5803 36.7347 81.6818 35.0127C81.7834 33.2907 81.6386 8.72246 81.2108 8.61443C81.2108 8.61443 72.5122 12.1535 71.8403 32.9493C71.8403 32.9493 78.1363 36.2637 79.3851 36.7693ZM86.2429 82.1938L109.147 81.8805C109.547 81.8543 109.943 81.9651 110.27 82.1945C110.598 82.4239 110.837 82.7583 110.949 83.1423L115.182 97.6378C115.182 97.6378 94.2976 94.8463 86.2429 82.1938ZM115.59 80.0743L129.181 69.6861C129.181 69.6861 135.202 80.2795 132.335 87.5067C127.543 99.5931 119.508 97.6335 119.508 97.6335L114.733 82.6951C114.578 82.2238 114.577 81.7154 114.732 81.244C114.886 80.7726 115.187 80.3628 115.59 80.0743ZM88.8507 79.0458L111.176 78.1448C111.485 78.1211 111.779 78.0174 112.036 77.8423L127.208 66.5726C127.208 66.5726 118.025 62.6576 107.849 66.3523C96.0887 70.6238 88.8507 79.0458 88.8507 79.0458Z" fill="#55ACEE"/>
<path d="M86.9577 78.2982C86.0373 79.2186 85.1255 80.1736 84.2289 81.161C86.0265 84.8426 89.1529 88.1073 95.2415 92.1736C99.5065 95.0212 114.596 100.038 122.286 99.4094C125.015 99.1869 127.735 97.7803 130.008 95.5074C134.64 90.875 137.41 82.6388 134.595 73.4887C128.826 54.7519 105.675 59.5808 86.9577 78.2982ZM129.874 75.6817C132.402 83.8963 130.788 89.7753 127.53 93.0335C125.872 94.6907 123.172 96.0389 121.391 96.1858C114.62 96.7389 104.07 93.7162 96.6005 89.7602C92.3268 87.4959 87.1457 81.8351 87.1457 81.8351L88.5414 80.3486C99.7074 69.1826 112.971 64.8117 121.465 66.9226C125.57 67.9424 128.4 70.8894 129.874 75.6817Z" fill="#292F33"/>
<path d="M79.7026 12.0065C80.2017 11.5074 81.7228 9.98637 84.4322 12.497C90.4451 18.0692 96.2442 26.8758 100.604 34.7058C103.543 39.982 104.29 45.2453 104.046 47.1963C103.778 49.3483 102.696 53.8963 99.3879 58.6086C95.7688 63.7616 92.098 69.498 87.2388 74.3572C85.452 76.1441 84.1837 77.4944 83.3173 78.188C80.9687 75.2733 76.7015 69.4592 73.9251 65.6975C71.3929 46.883 72.5207 22.3299 78.8664 13.0328C79.1387 12.6353 79.4196 12.2896 79.7026 12.0065ZM77.0018 9.30578C76.5611 9.74654 76.129 10.2694 75.712 10.8809C70.1354 19.0544 66.6893 42.0541 70.2759 67.1819C70.2759 67.1819 79.7199 80.0353 81.9539 82.2694C82.6799 82.9953 85.7653 80.6187 89.6414 76.7425C97.6723 68.7116 109.095 54.242 109.914 47.65C110.82 40.3537 96.618 18.5813 87.0314 9.69469C84.3933 7.25536 80.3918 5.91579 77.0018 9.30578Z" fill="#292F33"/>
<path d="M73.5816 134.502C82.7317 137.317 90.9658 134.549 95.6003 129.915C97.8732 127.642 99.2798 124.922 99.5023 122.193C100.133 114.505 95.1163 99.4157 92.2665 95.1486C88.2002 89.06 84.9377 85.9357 81.2539 84.136C80.2779 85.0225 79.3233 85.9324 78.3911 86.8648C59.6694 105.586 54.8426 128.735 73.5816 134.502Z" fill="#1C6399"/>
<path d="M9.39633 76.9108C6.00634 80.3008 7.34375 84.3044 9.78524 86.936C18.6718 96.5226 40.4464 110.726 47.7406 109.819C54.3326 109 68.8 97.5791 76.8331 89.546C80.7092 85.6699 83.0859 82.5846 82.3599 81.8586C80.128 79.6267 67.2724 70.1805 67.2724 70.1805C42.1446 66.5982 19.1428 70.0466 10.9714 75.6209C10.4074 76.0009 9.88006 76.4327 9.39633 76.9108Z" fill="#1C6399"/>
<path d="M49.4326 88.5698L34.1701 101.948C34.1701 101.948 44.2687 107.488 50.932 105.306C57.5953 103.124 70.8506 91.8691 70.8506 91.8691C70.8506 91.8691 56.6101 87.6969 52.3213 87.5392C51.2615 87.4971 50.2264 87.8664 49.4326 88.5698ZM44.0937 85.4737L10.2219 84.1233C10.2219 84.1233 21.8092 95.7193 31.4844 100.174C31.4844 100.174 43.9338 89.3628 45.107 88.2414C46.6605 86.7571 46.6281 85.5752 44.0937 85.4737ZM73.7804 88.9393L43.4304 82.3559C42.9962 82.3222 42.5774 82.1807 42.2118 81.9441C41.8462 81.7076 41.5454 81.3835 41.3368 81.0012L36.443 71.9245L65.246 71.6804L80.1002 82.8874L73.7804 88.9393ZM36.8579 79.2965C37.3634 80.5453 36.8233 81.4917 35.1013 81.5932C33.3793 81.6948 8.81105 81.55 8.70302 81.1222C8.70302 81.1222 12.2421 72.4236 33.0379 71.7517C33.0401 71.7495 36.3523 78.0477 36.8579 79.2965ZM82.2846 86.1521L81.9713 109.057C81.9451 109.456 82.0558 109.852 82.2853 110.18C82.5147 110.507 82.849 110.747 83.2331 110.859L97.7264 115.089C97.7264 115.093 94.937 94.2068 82.2846 86.1521ZM80.1628 115.502L69.7747 129.092C69.7747 129.092 80.3681 135.114 87.5953 132.246C99.6817 127.454 97.7221 119.419 97.7221 119.419L82.7837 114.644C82.3125 114.488 81.8038 114.487 81.3321 114.642C80.8605 114.796 80.4507 115.098 80.1628 115.502ZM79.1366 88.7599L78.2356 111.085C78.2119 111.394 78.1076 111.69 77.9331 111.945L66.6634 127.117C66.6634 127.117 62.7484 117.935 66.443 107.758C70.7124 96.0001 79.1366 88.7599 79.1366 88.7599Z" fill="#55ACEE"/>
<path d="M73.5816 134.502C82.7317 137.317 90.9658 134.549 95.6003 129.915C97.8732 127.642 99.2798 124.922 99.5023 122.193C100.133 114.505 95.1163 99.4157 92.2665 95.1486C88.2002 89.06 84.9377 85.9357 81.2539 84.136C80.2779 85.0225 79.3233 85.9324 78.3911 86.8648C59.6694 105.586 54.8426 128.735 73.5816 134.502ZM67.0112 121.372C64.9002 112.878 69.2711 99.6145 80.4372 88.4485L81.9236 87.0528C81.9236 87.0528 87.5866 92.2361 89.8487 96.5076C93.8048 103.977 96.8275 114.527 96.2744 121.298C96.1296 123.081 94.7792 125.779 93.1221 127.437C89.8639 130.695 83.987 132.311 75.7702 129.781C70.9802 128.31 68.0331 125.479 67.0112 121.372Z" fill="#292F33"/>
<path d="M12.0971 79.6116C12.3801 79.3285 12.7258 79.0476 13.1234 78.7754C22.4183 72.4319 46.9736 71.3019 65.7881 73.8341C69.5497 76.6105 75.3639 80.8777 78.2785 83.2262C77.585 84.0927 76.2346 85.3609 74.4478 87.1477C69.5886 92.0069 63.8522 95.6778 58.6992 99.2968C53.9869 102.605 49.4388 103.687 47.2868 103.955C45.3337 104.197 40.0726 103.452 34.7964 100.513C26.9664 96.1531 18.1597 90.3541 12.5875 84.3411C10.0769 81.6317 11.5958 80.1128 12.0971 79.6116ZM9.39633 76.9108C6.00634 80.3008 7.34375 84.3044 9.78524 86.936C18.6718 96.5226 40.4464 110.726 47.7406 109.819C54.3326 109 68.8 97.5791 76.8331 89.546C80.7092 85.6699 83.0859 82.5846 82.3599 81.8586C80.128 79.6267 67.2724 70.1805 67.2724 70.1805C42.1446 66.5982 19.1428 70.0466 10.9714 75.6209C10.4074 76.0009 9.88006 76.4327 9.39633 76.9108Z" fill="#292F33"/>
<path d="M57.5777 40.7815C57.3786 40.8387 57.1927 40.9347 57.0308 41.0639C56.8689 41.1932 56.734 41.3531 56.6341 41.5346C56.5341 41.7161 56.4709 41.9155 56.4482 42.1214C56.4255 42.3274 56.4437 42.5358 56.5018 42.7347L61.3415 59.4145C61.3739 59.5247 61.4409 59.609 61.4927 59.7041C61.2032 59.9633 60.9267 60.1924 60.6047 60.5143C60.285 60.8341 60.0516 61.1106 59.7967 61.4001C59.7016 61.3483 59.6173 61.2813 59.5072 61.2489L42.8273 56.4091C42.4253 56.2925 41.9935 56.3404 41.6268 56.5422C41.2601 56.744 40.9886 57.0831 40.8719 57.4851C40.7553 57.8871 40.8032 58.3189 41.005 58.6856C41.2068 59.0523 41.5459 59.3239 41.9479 59.4405L58.1114 64.1311C57.258 68.3724 68.0243 69.0746 78.8208 83.1941C93.3336 102.171 102.263 102.173 102.263 102.173C102.263 102.173 102.263 93.241 83.2846 78.7303C69.1651 67.9338 68.4629 57.1675 64.2216 58.021L59.5331 41.8553C59.4753 41.6564 59.3788 41.4707 59.2493 41.3091C59.1197 41.1474 58.9595 41.0129 58.778 40.9132C58.5964 40.8134 58.3969 40.7505 58.1909 40.7279C57.985 40.7053 57.7766 40.7235 57.5777 40.7815Z" fill="#292F33"/>
</g>
<defs>
<clipPath id="clip0_254_303">
<rect width="110" height="110" fill="white" transform="translate(0 77.7817) rotate(-45)"/>
</clipPath>
</defs>
</svg>
