<svg width="151" height="151" viewBox="0 0 151 151" fill="none" xmlns="http://www.w3.org/2000/svg">
<g clip-path="url(#clip0_254_251)">
<path d="M77.0075 84.1283C75.8803 83.4775 74.7218 82.844 73.536 82.2334C70.4451 84.9227 68.1008 88.7875 65.7489 95.721C64.1022 100.578 63.1617 116.452 65.7592 123.717C66.6804 126.295 68.7431 128.558 71.5269 130.166C77.2003 133.441 85.8728 133.985 93.9825 128.897C110.588 118.476 99.9315 97.3635 77.0075 84.1283Z" fill="#1C6399"/>
<path d="M141.072 56.6551C140.532 56.3434 139.915 56.0613 139.217 55.8168C129.879 52.5458 106.771 55.1698 83.4274 65.1377C83.4274 65.1377 73.4562 77.5866 71.8765 80.3228C71.3631 81.2119 74.4574 83.577 79.2046 86.3178C89.0405 91.9966 105.974 99.2855 112.553 98.3703C119.835 97.3563 137.19 78.0035 143.292 66.4435C144.966 63.264 145.224 59.0522 141.072 56.6551Z" fill="#1C6399"/>
<path d="M105.415 78.277L123.623 87.2509C123.623 87.2509 115.302 95.2157 108.301 94.8324C101.3 94.4492 85.5835 87.0088 85.5835 87.0088C85.5835 87.0088 98.259 79.2931 102.361 78.0307C103.379 77.7154 104.463 77.8051 105.415 78.277ZM109.773 73.9061L142.142 63.8351C142.142 63.8351 133.95 78.035 125.758 84.8424C125.758 84.8424 110.934 77.6213 109.511 76.8418C107.626 75.8101 107.352 74.6602 109.773 73.9061ZM81.9952 84.9371L109.607 70.7229C110.018 70.578 110.386 70.3329 110.678 70.0098C110.97 69.6866 111.176 69.2957 111.279 68.8725L113.657 58.8385L85.7719 66.0574L74.3245 80.7272L81.9952 84.9371ZM115.161 66.0651C114.996 67.4023 115.763 68.1766 117.452 67.829C119.142 67.4814 142.836 60.9828 142.829 60.5416C142.829 60.5416 137.159 53.0554 116.898 57.7887C116.898 57.7887 115.326 64.728 115.161 66.0651ZM73.0595 84.446L79.2902 106.489C79.4189 106.868 79.4144 107.279 79.2776 107.655C79.1408 108.031 78.8798 108.349 78.5378 108.556L65.6317 116.396C65.6317 116.396 62.9228 95.5009 73.0595 84.446ZM82.7025 112.245L96.2541 122.683C96.2541 122.683 87.5802 131.242 79.8571 130.343C66.9422 128.842 66.7554 120.573 66.7554 120.573L79.949 112.095C80.3641 111.823 80.8551 111.691 81.3504 111.718C81.8457 111.745 82.3194 111.93 82.7025 112.245ZM76.7752 86.1502L83.4237 107.482C83.5267 107.774 83.7029 108.031 83.9385 108.234L98.7509 119.972C98.7509 119.972 100.156 110.089 93.9533 101.216C86.7836 90.9618 76.7752 86.1502 76.7752 86.1502Z" fill="#55ACEE"/>
<path d="M77.0075 84.1283C75.8803 83.4775 74.7218 82.844 73.536 82.2334C70.4451 84.9227 68.1008 88.7875 65.7489 95.721C64.1022 100.578 63.1617 116.452 65.7592 123.717C66.6804 126.295 68.7431 128.558 71.5269 130.166C77.2003 133.441 85.8728 133.985 93.9825 128.897C110.588 118.476 99.9315 97.3635 77.0075 84.1283ZM90.6424 124.905C83.3619 129.473 77.2655 129.435 73.2751 127.131C71.2455 125.96 69.2442 123.7 68.6415 122.018C66.3546 115.621 66.5437 104.648 68.4318 96.4091C69.5129 91.695 73.6398 85.2253 73.6398 85.2253L75.4369 86.1888C89.1124 94.0843 96.7673 105.765 96.9266 114.515C97.004 118.745 94.8899 122.241 90.6424 124.905Z" fill="#292F33"/>
<path d="M139.162 59.9628C139.774 60.3157 141.637 61.3913 139.913 64.6582C136.087 71.9084 129.081 79.7892 122.646 86.0273C118.31 90.2312 113.42 92.3155 111.472 92.5846C109.324 92.8828 104.651 93.0144 99.2432 91.0388C93.3291 88.8768 86.8381 86.8157 80.8868 83.3798C78.6984 82.1163 77.0658 81.2407 76.1716 80.5834C78.3791 77.5604 82.8908 71.9338 85.8056 68.2785C103.324 60.963 127.332 55.6976 137.955 59.4208C138.409 59.5808 138.816 59.7627 139.162 59.9628ZM141.072 56.6551C140.532 56.3434 139.915 56.0613 139.217 55.8168C129.879 52.5458 106.771 55.1698 83.4274 65.1377C83.4274 65.1377 73.4562 77.5866 71.8765 80.3228C71.3631 81.2119 74.4574 83.577 79.2046 86.3178C89.0405 91.9966 105.974 99.2855 112.553 98.3703C119.835 97.3563 137.19 78.0035 143.292 66.4435C144.966 63.264 145.224 59.0522 141.072 56.6551Z" fill="#292F33"/>
<path d="M19.257 85.7546C18.9059 95.3216 23.7105 102.559 29.3866 105.836C32.1703 107.443 35.1619 108.098 37.8554 107.606C45.4441 106.226 58.7211 97.4746 62.1053 93.6175C66.934 88.1139 69.1074 84.154 69.8924 80.1298C68.7835 79.4165 67.6576 78.73 66.5156 78.0709C43.5864 64.8327 19.9772 66.1617 19.257 85.7546Z" fill="#1C6399"/>
<path d="M58.2728 8.85109C54.1209 6.45401 50.5999 8.78206 48.6899 11.8215C41.7299 22.8864 33.6458 47.5953 36.4102 54.406C38.9073 60.5615 53.6835 71.58 63.5221 77.2602C68.2693 80.0011 71.8647 81.4982 72.378 80.6091C73.9562 77.8756 79.7532 63.0132 79.7532 63.0132C76.7099 37.8144 67.4257 16.4889 59.9264 10.0387C59.4134 9.59219 58.8598 9.19461 58.2728 8.85109Z" fill="#1C6399"/>
<path d="M57.3739 50.5401L40.5011 39.2603C40.5011 39.2603 37.7638 50.4487 41.5962 56.3201C45.4287 62.1916 59.7305 72.0823 59.7305 72.0823C59.7305 72.0823 60.0748 57.2472 59.1171 53.0637C58.8834 52.0291 58.2589 51.1249 57.3739 50.5401ZM58.9828 44.5819L51.5205 11.5147C51.5205 11.5147 43.3187 25.7085 41.5194 36.2071C41.5194 36.2071 55.1848 45.434 56.5716 46.277C58.4074 47.3934 59.5406 47.0562 58.9828 44.5819ZM63.3187 74.154L61.8226 43.1342C61.7428 42.7061 61.7711 42.2649 61.905 41.8505C62.0388 41.4361 62.2741 41.0618 62.5893 40.7613L70.0901 33.6851L77.7807 61.4435L70.8001 78.6921L63.3187 74.154ZM63.0767 35.9938C62.0013 36.8054 60.9474 36.5286 60.4036 34.8915C59.8598 33.2545 53.6409 9.48591 54.0262 9.27084C54.0262 9.27084 63.3444 10.438 69.3758 30.3513C69.3784 30.3528 64.1521 35.1822 63.0767 35.9938ZM68.212 81.647L46.0068 87.2725C45.6145 87.3505 45.2605 87.56 45.0034 87.8664C44.7463 88.1728 44.6015 88.5578 44.5928 88.9577L44.2577 104.052C44.2535 104.053 63.7064 95.9531 68.212 81.647ZM39.3133 87.1938L23.4975 80.677C23.4975 80.677 20.4228 92.468 25.0628 98.7069C32.8199 109.141 40.0742 105.169 40.0742 105.169L40.8201 89.5033C40.8487 89.0079 40.7178 88.5163 40.4466 88.1007C40.1754 87.685 39.7782 87.3672 39.3133 87.1938ZM64.8782 79.2812L43.0802 84.1892C42.7764 84.2461 42.463 84.2221 42.1713 84.1196L24.5997 77.1606C24.5997 77.1606 32.4561 71.0024 43.2421 71.9373C55.7044 73.0179 64.8782 79.2812 64.8782 79.2812Z" fill="#55ACEE"/>
<path d="M19.257 85.7546C18.9059 95.3216 23.7105 102.559 29.3866 105.836C32.1703 107.443 35.1619 108.098 37.8554 107.606C45.4441 106.226 58.7211 97.4746 62.1053 93.6175C66.934 88.1139 69.1074 84.154 69.8924 80.1298C68.7835 79.4165 67.6576 78.73 66.5156 78.0709C43.5864 64.8327 19.9772 66.1617 19.257 85.7546ZM30.2391 76.0098C37.8967 71.7726 51.8399 72.5616 65.5154 80.4571L67.2484 81.5317C67.2484 81.5317 63.7074 88.3432 60.1669 91.6339C53.9761 97.3883 44.5677 103.039 37.8839 104.257C36.1247 104.578 33.1685 103.972 31.1389 102.801C27.1485 100.497 24.0664 95.2385 24.3836 86.6469C24.565 81.6392 26.5362 78.06 30.2391 76.0098Z" fill="#292F33"/>
<path d="M56.3631 12.1588C56.7097 12.359 57.0705 12.6202 57.4364 12.9337C65.9695 20.2701 73.4163 43.6962 75.8399 62.525C74.1317 66.8771 71.5148 73.5976 70.0006 77.0208C68.9842 76.5751 67.4096 75.599 65.2212 74.3355C59.27 70.8995 54.2395 66.3087 49.4101 62.2679C44.9953 58.5723 42.7726 54.4594 41.9568 52.4501C41.2176 50.6261 40.5759 45.3514 42.0486 39.4944C44.2336 30.8027 47.5557 20.7953 51.9216 13.8567C53.8889 10.7304 55.7492 11.8044 56.3631 12.1588ZM58.2728 8.85109C54.1209 6.45401 50.5999 8.78206 48.6899 11.8215C41.7299 22.8864 33.6458 47.5953 36.4102 54.406C38.9073 60.5615 53.6835 71.58 63.5221 77.2602C68.2693 80.0011 71.8647 81.4982 72.378 80.6091C73.9562 77.8756 79.7532 63.0132 79.7532 63.0132C76.7099 37.8144 67.4257 16.4889 59.9264 10.0387C59.4134 9.59219 58.8598 9.19461 58.2728 8.85109Z" fill="#292F33"/>
<path d="M105.642 46.0398C105.535 45.8622 105.394 45.7075 105.228 45.5846C105.061 45.4616 104.872 45.3728 104.67 45.3232C104.469 45.2736 104.26 45.2642 104.055 45.2955C103.851 45.3269 103.654 45.3984 103.477 45.506L88.618 54.4979C88.52 54.5577 88.4559 54.6442 88.3775 54.7189C88.0521 54.5063 87.7593 54.2985 87.3651 54.0708C86.9734 53.8447 86.6459 53.6909 86.3003 53.5196C86.3257 53.4143 86.3686 53.3156 86.3714 53.2008L86.7292 35.8367C86.7378 35.4182 86.5798 35.0135 86.29 34.7115C86.0002 34.4095 85.6023 34.235 85.1838 34.2264C84.7653 34.2178 84.3606 34.3758 84.0586 34.6656C83.7566 34.9554 83.5822 35.3534 83.5736 35.7718L83.2261 52.5986C78.9085 52.8719 81.0168 63.4531 70.1727 77.5362C55.5989 96.4659 57.908 105.092 57.908 105.092C57.908 105.092 66.5356 102.78 75.6397 80.6926C82.4139 64.2598 92.6316 60.795 90.7096 56.9191L105.111 48.2064C105.288 48.0991 105.442 47.9579 105.565 47.7909C105.688 47.6239 105.776 47.4344 105.825 47.2332C105.875 47.0319 105.884 46.823 105.853 46.6182C105.821 46.4134 105.75 46.2169 105.642 46.0398Z" fill="#292F33"/>
</g>
<defs>
<clipPath id="clip0_254_251">
<rect width="110" height="110" fill="white" transform="translate(55) rotate(30)"/>
</clipPath>
</defs>
</svg>
